<svg width="67.000000" height="67.000000" viewBox="0 0 67 67" fill="none" xmlns="http://www.w3.org/2000/svg" xmlns:xlink="http://www.w3.org/1999/xlink">
	<desc>
			Created with Pixso.
	</desc>
	<defs>
		<clipPath id="clip22_17442">
			<rect id="Frame 2608472" rx="-0.558333" width="44.666668" height="44.666668" transform="translate(11.724349 10.608138)" fill="white" fill-opacity="0"/>
		</clipPath>
		<clipPath id="clip22_17440">
			<rect id="Frame 2608470" rx="-0.558333" width="65.883331" height="65.883331" transform="translate(0.558333 0.558333)" fill="white" fill-opacity="0"/>
		</clipPath>
	</defs>
	<g clip-path="url(#clip22_17440)">
		<rect id="Rectangle 452" x="-1.222839" y="18.983398" rx="11.166667" width="27.916668" height="70.471802" transform="rotate(-45 -1.222839 18.983398)" fill="#276CD3" fill-opacity="0.100000"/>
		<rect id="Frame 2608472" rx="-0.558333" width="44.666668" height="44.666668" transform="translate(11.724349 10.608138)" fill="#FFFFFF" fill-opacity="0"/>
		<g clip-path="url(#clip22_17442)">
			<path id="Rectangle 454" d="M25.68 15.63C23.21 15.63 21.21 17.63 21.21 20.1L21.21 49.13C21.21 51.6 23.21 53.6 25.68 53.6L51.36 53.6C53.83 53.6 55.83 51.6 55.83 49.13L55.83 20.1C55.83 17.63 53.83 15.63 51.36 15.63L25.68 15.63ZM25.68 18.98L51.36 18.98Q51.59 18.98 51.79 19.06Q51.99 19.14 52.15 19.31Q52.31 19.47 52.4 19.67Q52.48 19.86 52.48 20.1L52.48 49.13Q52.48 49.36 52.4 49.56Q52.31 49.75 52.15 49.92Q51.99 50.08 51.79 50.16Q51.59 50.25 51.36 50.25L25.68 50.25Q25.45 50.25 25.25 50.16Q25.05 50.08 24.89 49.92Q24.72 49.75 24.64 49.56Q24.56 49.36 24.56 49.13L24.56 20.1Q24.56 19.54 24.84 19.26Q25.12 18.98 25.68 18.98Z" fill="#276CD3" fill-opacity="1.000000" fill-rule="evenodd"/>
			<path id="Rectangle 455" d="M24.56 48.57L24.56 16.75C24.56 14.28 22.56 12.28 20.09 12.28L16.74 12.28C14.28 12.28 12.28 14.28 12.28 16.75L12.28 49.13C12.28 51.6 14.28 53.6 16.74 53.6L48.32 53.6C48.85 53.6 49.38 53.5 49.89 53.31L53.59 51.92L24.56 51.92L24.56 50.25L24.56 48.57ZM21.21 50.25L21.21 16.75Q21.21 16.19 20.93 15.91Q20.65 15.63 20.09 15.63L16.74 15.63Q16.51 15.63 16.32 15.71Q16.12 15.79 15.95 15.96Q15.79 16.12 15.71 16.32Q15.63 16.51 15.63 16.75L15.63 20.1L15.63 49.13Q15.63 49.36 15.71 49.56Q15.79 49.75 15.95 49.92Q16.12 50.08 16.32 50.16Q16.51 50.25 16.74 50.25L21.21 50.25Z" fill="#276CD3" fill-opacity="1.000000" fill-rule="evenodd"/>
			<path id="Vector 90" d="M24 23.45L31.82 23.45L31.82 29.59L24 29.59" stroke="#276CD3" stroke-opacity="1.000000" stroke-width="3.350000"/>
			<path id="Vector 91" d="M48.01 21.77L31.82 21.77L31.82 25.12L44.66 25.12L44.66 42.43L31.26 42.43L31.26 39.64L34.05 39.64C34.99 39.64 35.73 38.9 35.73 37.96C35.73 37.02 34.99 36.29 34.05 36.29L27.35 36.29Q26.66 36.29 26.17 36.78Q25.68 37.27 25.68 37.96Q25.68 38.66 26.17 39.15Q26.66 39.64 27.35 39.64L27.91 39.64L27.91 42.43L24.56 42.43L24.56 45.78L48.01 45.78L48.01 21.77Z" fill="#276CD3" fill-opacity="1.000000" fill-rule="evenodd"/>
			<path id="Vector 93" d="M37.96 27.91L37.96 31.82L41.31 31.82" stroke="#276CD3" stroke-opacity="1.000000" stroke-width="3.350000" stroke-linecap="round"/>
			<path id="Vector 92" d="M41.31 38.52L46.34 38.52L46.34 35.17L37.96 35.17L37.96 40.75C37.96 41.69 38.7 42.43 39.64 42.43C40.57 42.43 41.31 41.69 41.31 40.75L41.31 38.52Z" fill="#276CD3" fill-opacity="1.000000" fill-rule="evenodd"/>
			<path id="Vector 94" d="M50.8 28.47L54.15 28.47M50.8 39.08L54.15 39.08" stroke="#276CD3" stroke-opacity="1.000000" stroke-width="3.350000"/>
			<path id="Vector 95" d="M13.95 44.66L22.33 50.8" stroke="#276CD3" stroke-opacity="1.000000" stroke-width="3.350000"/>
		</g>
	</g>
</svg>
