<svg width="101" height="100" viewBox="0 0 101 100" fill="none" xmlns="http://www.w3.org/2000/svg">
<path fill-rule="evenodd" clip-rule="evenodd" d="M13.5639 3.11152C14.0053 2.67467 14.6662 2.68617 15.0982 3.03294L20.5531 4.67873C20.8113 4.75665 21.0466 4.8966 21.2383 5.08636L29.2138 12.9803C29.4175 13.182 29.5653 13.4331 29.6426 13.7091L31.2584 19.4773C31.4623 19.8697 31.4125 20.3763 31.0643 20.721L27.3174 24.4297C26.8677 24.8747 26.2034 25.024 25.6065 24.8142L20.6805 23.0821L13.37 30.3179C12.726 30.9553 11.6888 30.9553 11.0448 30.3179L3.76792 23.1154C3.11447 22.4686 3.11447 21.4129 3.76792 20.7661L11.084 13.5248L9.50954 8.36795C9.33026 7.78077 9.49124 7.14259 9.92759 6.71071L13.5639 3.11152ZM13.9805 5.48961L11.4647 7.97979L12.6764 11.9487L15.1923 9.45848L13.9805 5.48961ZM16.3157 11.1371L13.617 13.8082L20.424 20.5455L23.1226 17.8745L16.3157 11.1371ZM24.7897 19.0149L22.2477 21.5309L26.0692 22.8746L28.6172 20.3527L24.7897 19.0149ZM28.8814 18.3441L25.0707 17.0122L17.191 9.21304L16.0217 5.38311L19.9016 6.55371L27.7565 14.3283L28.8814 18.3441ZM19.0143 21.9408L12.2074 15.2034L11.5629 15.8413L18.3698 22.5787L19.0143 21.9408ZM16.9602 23.9739L10.1532 17.2365L9.5087 17.8745L16.3157 24.6118L16.9602 23.9739ZM14.906 26.0071L8.09908 19.2697L7.45456 19.9076L14.2615 26.645L14.906 26.0071ZM12.8519 28.0402L6.04493 21.3028L5.40041 21.9408L12.2074 28.6782L12.8519 28.0402Z" fill="#93B6EA"/>
<path fill-rule="evenodd" clip-rule="evenodd" d="M47.0941 16.4707C47.856 15.7165 49.0361 15.8163 49.692 16.5326L66.7361 21.6749C67.046 21.7684 67.3283 21.9363 67.5583 22.164L91.967 46.3232C92.2115 46.5652 92.3888 46.8665 92.4816 47.1978L97.4791 65.0382C97.8511 65.6165 97.8078 66.4174 97.2699 66.9499L85.441 78.6579C84.9014 79.192 84.1042 79.3711 83.388 79.1193L66.8535 73.3055L43.2569 96.661C42.484 97.4259 41.2394 97.4259 40.4666 96.661L16.7566 73.1933C15.9724 72.4172 15.9724 71.1503 16.7566 70.3742L40.3639 47.0081L35.1156 29.8188C34.9005 29.1142 35.0937 28.3484 35.6173 27.8301L47.0941 16.4707ZM47.963 19.3312L37.7613 29.4286L42.4871 44.9066L52.6888 34.8092L47.963 19.3312ZM54.1866 37.0473L43.7412 47.386L66.5115 69.9235L76.9568 59.5849L54.1866 37.0473ZM79.1796 61.1054L68.9431 71.2373L83.8748 76.4875L94.1346 66.3326L79.1796 61.1054ZM94.3301 63.5997L79.5543 58.4352L55.3537 34.482L50.8207 19.6351L65.8149 24.159L89.9825 48.0795L94.3301 63.5997ZM64.632 71.7838L41.8617 49.2462L37.5788 53.4854L60.349 76.0229L64.632 71.7838ZM58.4695 77.8832L35.6993 55.3457L31.4163 59.5849L54.1866 82.1224L58.4695 77.8832ZM52.3071 83.9827L29.5368 61.4452L25.2539 65.6843L48.0241 88.2218L52.3071 83.9827ZM46.1447 90.0821L23.3744 67.5446L19.0915 71.7838L41.8617 94.3213L46.1447 90.0821Z" fill="#93B6EA"/>
<path d="M17.9031 31.0126C17.5104 30.631 16.8827 30.64 16.5011 31.0327C16.1194 31.4254 16.1285 32.0532 16.5212 32.4348L24.5878 40.2729L21.2895 43.6673L32.3898 46.4714L29.268 35.4562L25.9697 38.8507L17.9031 31.0126Z" fill="#93B6EA"/>
</svg>
