<svg width="67.000000" height="67.000000" viewBox="0 0 67 67" fill="none" xmlns="http://www.w3.org/2000/svg" xmlns:xlink="http://www.w3.org/1999/xlink">
	<desc>
			Created with Pixso.
	</desc>
	<defs>
		<clipPath id="clip22_17457">
			<rect id="SVG" rx="-0.558333" width="42.433334" height="50.250000" transform="translate(12.841537 8.374740)" fill="white" fill-opacity="0"/>
		</clipPath>
		<clipPath id="clip22_17455">
			<rect id="Frame 2608470" rx="-0.558333" width="65.883331" height="65.883331" transform="translate(0.558333 0.558333)" fill="white" fill-opacity="0"/>
		</clipPath>
	</defs>
	<g clip-path="url(#clip22_17455)">
		<rect id="Rectangle 452" x="-1.222656" y="18.983398" rx="11.166667" width="27.916668" height="70.471802" transform="rotate(-45 -1.222656 18.983398)" fill="#276CD3" fill-opacity="0.100000"/>
		<g clip-path="url(#clip22_17457)">
			<path id="Vector" d="M34.08 11.16L51.36 16.64L51.36 32.92C51.36 46.55 40.69 51.57 35.07 54.25L34.42 54.54L34.08 54.71L33.64 54.5C28.2 51.87 16.75 46.43 16.75 32.92L16.75 16.64L34.08 11.16ZM18.39 17.77L18.39 20.87L34.03 16.14L49.72 20.87L49.72 17.77L34.08 12.83L18.39 17.85L18.39 17.77ZM49.76 22.5L34.08 17.77L18.39 22.5L18.39 32.87C18.39 45.17 28.41 50.24 34.03 53C39.69 50.28 49.72 45.55 49.72 32.92L49.72 22.5L49.76 22.5Z" fill="#276CD3" fill-opacity="1.000000" fill-rule="evenodd"/>
			<path id="Vector" d="M51.36 16.64L51.36 32.92C51.36 46.55 40.69 51.57 35.07 54.25L34.42 54.54L34.08 54.71L33.64 54.5C28.2 51.87 16.75 46.43 16.75 32.92L16.75 16.64L34.08 11.16L51.36 16.64ZM18.39 20.87L34.03 16.14L49.72 20.87L49.72 17.77L34.08 12.83L18.39 17.85L18.39 17.77L18.39 20.87ZM34.08 17.77L18.39 22.5L18.39 32.87C18.39 45.17 28.41 50.24 34.03 53C39.69 50.28 49.72 45.55 49.72 32.92L49.72 22.5L49.76 22.5L34.08 17.77Z" stroke="#276CD3" stroke-opacity="1.000000" stroke-width="2.233333"/>
			<path id="Vector" d="M42.99 28.43C43.29 28.73 43.28 29.23 42.97 29.52L33.21 38.64L26.31 33.51C25.97 33.25 25.9 32.76 26.17 32.42L26.17 32.42C26.43 32.1 26.89 32.04 27.22 32.28L33.12 36.65L41.93 28.41C42.23 28.13 42.7 28.14 42.99 28.43L42.99 28.43Z" fill="#276CD3" fill-opacity="1.000000" fill-rule="evenodd"/>
			<path id="Vector" d="M33.21 38.64L26.31 33.51C25.97 33.25 25.9 32.76 26.17 32.42C26.43 32.1 26.89 32.04 27.22 32.28L33.12 36.65L41.93 28.41C42.23 28.13 42.7 28.14 42.99 28.43C43.29 28.73 43.28 29.23 42.97 29.52L33.21 38.64Z" stroke="#276CD3" stroke-opacity="1.000000" stroke-width="0.858826"/>
		</g>
	</g>
</svg>
