<svg width="67.000000" height="67.000000" viewBox="0 0 67 67" fill="none" xmlns="http://www.w3.org/2000/svg" xmlns:xlink="http://www.w3.org/1999/xlink">
	<desc>
			Created with Pixso.
	</desc>
	<defs>
		<clipPath id="clip22_17473">
			<rect id="Frame 2608470" rx="-0.558333" width="65.883331" height="65.883331" transform="translate(0.558333 0.558333)" fill="white" fill-opacity="0"/>
		</clipPath>
	</defs>
	<g clip-path="url(#clip22_17473)">
		<rect id="Rectangle 452" x="-1.223633" y="18.983398" rx="11.166667" width="27.916668" height="70.471802" transform="rotate(-45 -1.223633 18.983398)" fill="#276CD3" fill-opacity="0.100000"/>
		<path id="Vector 96" d="M32.6 12.66C33.17 12.42 33.82 12.42 34.39 12.67L53 20.9C54.75 21.67 54.78 24.15 53.04 24.96L34.43 33.62C33.84 33.89 33.15 33.9 32.56 33.63L19.98 27.91L13.52 24.97C11.75 24.17 11.78 21.66 13.56 20.89L32.6 12.66ZM19.98 27.91L13.75 30.43C11.93 31.16 11.88 33.72 13.67 34.53L21.21 37.96L32.56 43.12C33.15 43.39 33.84 43.39 34.43 43.11L45.5 37.96L53.05 34.45C54.79 33.64 54.77 31.16 53.02 30.38L47.45 27.91M45.5 37.96L53.26 41.57C54.96 42.36 54.98 44.78 53.29 45.6L34.46 54.8C33.85 55.1 33.14 55.1 32.52 54.81L13.26 45.61C11.54 44.79 11.57 42.35 13.29 41.56L21.21 37.96" stroke="#276CD3" stroke-opacity="1.000000" stroke-width="3.350000"/>
	</g>
</svg>
