<svg width="80" height="80" viewBox="0 0 80 80" fill="none" xmlns="http://www.w3.org/2000/svg">
<g clip-path="url(#clip0_1_2950)">
<rect x="-3.84082" y="17.3726" width="30" height="94" rx="12" transform="rotate(-45 -3.84082 17.3726)" fill="#EAF1FB"/>
<path d="M76 40C76 59.8822 59.8822 76 40 76C20.1178 76 4 59.8822 4 40C4 20.1178 20.1178 4 40 4C59.8822 4 76 20.1178 76 40Z" stroke="#276CD3" stroke-width="2" stroke-miterlimit="10" stroke-linecap="round" stroke-linejoin="round"/>
<path d="M44.0975 40.0001C44.0975 42.2631 42.2629 44.0977 39.9999 44.0977C37.7369 44.0977 35.9023 42.2631 35.9023 40.0001C35.9023 37.7371 37.7369 35.9025 39.9999 35.9025C42.2629 35.9025 44.0975 37.7371 44.0975 40.0001Z" stroke="#276CD3" stroke-width="2" stroke-miterlimit="10" stroke-linecap="round" stroke-linejoin="round"/>
<path d="M44.0975 40.0001C44.0975 42.2631 42.2629 44.0977 39.9999 44.0977C37.7369 44.0977 35.9023 42.2631 35.9023 40.0001C35.9023 37.7371 37.7369 35.9025 39.9999 35.9025C42.2629 35.9025 44.0975 37.7371 44.0975 40.0001Z" stroke="#276CD3" stroke-width="2" stroke-miterlimit="10" stroke-linecap="round" stroke-linejoin="round"/>
<path d="M27.8517 18.962L35.023 31.3831C36.5346 30.5072 38.251 30.0469 39.998 30.0489C41.745 30.0469 43.4614 30.5072 44.973 31.3831L52.1443 18.962L52.1464 18.9585C48.5727 16.8909 44.4237 15.7074 39.998 15.7074C35.5723 15.7074 31.4233 16.8909 27.8496 18.9585L27.8517 18.962Z" stroke="#276CD3" stroke-width="2" stroke-miterlimit="10" stroke-linecap="round" stroke-linejoin="round"/>
<path d="M27.8555 61.038L35.0268 48.6168C33.5126 47.7456 32.2557 46.4894 31.3838 44.9756C30.5087 43.4636 30.0491 41.7469 30.0518 39.9999H15.7051C15.7013 44.1285 16.751 48.3136 18.9638 52.1463C21.1765 55.979 24.2762 58.9804 27.8535 61.0415L27.8555 61.038Z" stroke="#276CD3" stroke-width="2" stroke-miterlimit="10" stroke-linecap="round" stroke-linejoin="round"/>
<path d="M64.2962 39.9999H49.9535C49.9562 41.7469 49.4967 43.4636 48.6215 44.9756C47.7497 46.4894 46.4928 47.7457 44.9785 48.6168L52.1498 61.038L52.1519 61.0415C55.7292 58.9806 58.8289 55.979 61.0415 52.1463C63.2544 48.3136 64.3041 44.1285 64.3003 39.9999H64.2962Z" stroke="#276CD3" stroke-width="2" stroke-miterlimit="10" stroke-linecap="round" stroke-linejoin="round"/>
<path fill-rule="evenodd" clip-rule="evenodd" d="M21.8563 65.2404C24.868 67.4092 28.2837 69.0522 31.9688 70.0351C35.6376 71.0186 39.4018 71.3014 43.0801 70.9321C47.5915 70.4883 51.8198 69.08 55.5558 66.9162C59.2791 64.7691 62.5973 61.8254 65.2287 58.1607C67.4104 55.1352 69.0614 51.7015 70.045 47.9961C71.0213 44.337 71.3009 40.5835 70.9321 36.9157C70.4909 32.4381 69.0993 28.2384 66.9616 24.5224C64.543 20.3001 61.1025 16.5947 56.7496 13.815C56.7288 13.7991 56.7071 13.7839 56.6845 13.7696C54.0453 12.0875 51.135 10.7927 48.0343 9.96533C44.9433 9.13651 41.7841 8.8049 38.6658 8.94176C38.6395 8.94291 38.6136 8.94514 38.5879 8.94839C33.4444 9.17841 28.6262 10.6585 24.4297 13.0921C20.7115 15.2392 17.3979 18.1812 14.77 21.8414C12.6092 24.8385 10.9693 28.236 9.98287 31.9015C8.97901 35.6128 8.69299 39.4231 9.07446 43.1442C9.52349 47.6139 10.9195 51.8043 13.0588 55.5119C15.2113 59.2585 18.1694 62.5968 21.8563 65.2404ZM26.5463 14.0662C30.5729 11.973 35.1485 10.7901 40.0003 10.7901C42.6111 10.7901 45.1413 11.1324 47.5488 11.7745C49.9642 12.4221 52.3357 13.3931 54.6051 14.7034C58.8063 17.1289 62.177 20.4405 64.6174 24.2658C64.6277 24.2848 64.6387 24.3035 64.6505 24.3219C64.8584 24.648 65.0599 24.9785 65.255 25.3132C67.3642 28.9479 68.6638 32.9965 69.0739 37.161C69.164 38.095 69.2101 39.042 69.2101 39.9998C69.2101 42.5968 68.8712 45.1146 68.2351 47.5114C67.5875 49.9399 66.6133 52.3241 65.2966 54.6046C64.8027 55.4602 64.272 56.2813 63.7077 57.0671C61.2979 60.4085 58.1991 63.22 54.6195 65.2935C51.0179 67.3706 47.0129 68.6546 42.8931 69.0681C41.9415 69.1617 40.9765 69.2096 40.0003 69.2096C37.3906 69.2096 34.8608 68.8673 32.4533 68.2252C30.0371 67.5776 27.6648 66.6064 25.3954 65.2962C24.5464 64.806 23.7314 64.2797 22.9511 63.7203C19.5882 61.2989 16.7611 58.1801 14.6816 54.5757C12.6298 51.004 11.357 47.0374 10.9384 42.9567C10.8406 41.9843 10.7906 40.9979 10.7906 39.9998C10.7906 37.366 11.1391 34.8136 11.7927 32.3862C12.4403 29.993 13.4056 27.6435 14.7039 25.3949C15.187 24.5581 15.7051 23.7544 16.2555 22.9844C18.6996 19.5796 21.8579 16.7222 25.5113 14.6311C25.8347 14.4468 26.1613 14.2689 26.4909 14.0974C26.5099 14.0875 26.5283 14.0771 26.5463 14.0662Z" fill="#276CD3"/>
</g>
<defs>
<clipPath id="clip0_1_2950">
<rect width="80" height="80" fill="white"/>
</clipPath>
</defs>
</svg>
