<svg width="67.000000" height="67.000000" viewBox="0 0 67 67" fill="none" xmlns="http://www.w3.org/2000/svg" xmlns:xlink="http://www.w3.org/1999/xlink">
	<desc>
			Created with Pixso.
	</desc>
	<defs>
		<clipPath id="clip22_17465">
			<rect id="SVG" rx="-0.558333" width="39.083336" height="39.083336" transform="translate(13.957747 13.958236)" fill="white" fill-opacity="0"/>
		</clipPath>
		<clipPath id="clip22_17463">
			<rect id="Frame 2608470" rx="-0.558333" width="65.883331" height="65.883331" transform="translate(0.558333 0.558333)" fill="white" fill-opacity="0"/>
		</clipPath>
	</defs>
	<g clip-path="url(#clip22_17463)">
		<rect id="Rectangle 452" x="-1.223633" y="18.983398" rx="11.166667" width="27.916668" height="70.471802" transform="rotate(-45 -1.223633 18.983398)" fill="#276CD3" fill-opacity="0.100000"/>
		<g clip-path="url(#clip22_17465)">
			<path id="Vector" d="M32.8 34.19L14.79 34.19L14.79 47.74C14.79 50.2 16.79 52.2 19.25 52.2L32.8 52.2L32.8 34.19ZM32.8 32.8L14.79 32.8L14.79 19.25C14.79 16.79 16.79 14.79 19.25 14.79L32.8 14.79L32.8 32.8ZM34.19 34.19L34.19 52.2L47.74 52.2C50.2 52.2 52.2 50.2 52.2 47.74L52.2 34.19L34.19 34.19ZM52.2 32.8L34.19 32.8L34.19 14.79L47.74 14.79C50.2 14.79 52.2 16.79 52.2 19.25L52.2 32.8ZM53.59 49.13C53.59 51.6 51.59 53.6 49.13 53.6L17.86 53.6C15.39 53.6 13.39 51.6 13.39 49.13L13.39 17.86C13.39 15.39 15.39 13.39 17.86 13.39L49.13 13.39C51.59 13.39 53.59 15.39 53.59 17.86L53.59 49.13Z" fill="#276CD3" fill-opacity="1.000000" fill-rule="evenodd"/>
			<path id="Vector" d="M14.79 34.19L14.79 47.74C14.79 50.2 16.79 52.2 19.25 52.2L32.8 52.2L32.8 34.19L14.79 34.19ZM14.79 32.8L14.79 19.25C14.79 16.79 16.79 14.79 19.25 14.79L32.8 14.79L32.8 32.8L14.79 32.8ZM34.19 52.2L47.74 52.2C50.2 52.2 52.2 50.2 52.2 47.74L52.2 34.19L34.19 34.19L34.19 52.2ZM34.19 32.8L34.19 14.79L47.74 14.79C50.2 14.79 52.2 16.79 52.2 19.25L52.2 32.8L34.19 32.8ZM17.86 53.6C15.39 53.6 13.39 51.6 13.39 49.13L13.39 17.86C13.39 15.39 15.39 13.39 17.86 13.39L49.13 13.39C51.59 13.39 53.59 15.39 53.59 17.86L53.59 49.13C53.59 51.6 51.59 53.6 49.13 53.6L17.86 53.6Z" stroke="#276CD3" stroke-opacity="1.000000" stroke-width="2.233333"/>
			<path id="Vector" d="M24.03 30.4C23.7 30.4 23.45 30.14 23.45 29.82L23.45 17.84C23.45 17.52 23.7 17.26 24.03 17.26L24.03 17.26C24.35 17.26 24.6 17.52 24.6 17.84L24.6 29.82C24.6 30.14 24.35 30.4 24.03 30.4L24.03 30.4Z" fill="#276CD3" fill-opacity="1.000000" fill-rule="evenodd"/>
			<path id="Vector" d="M23.45 17.84C23.45 17.52 23.7 17.26 24.03 17.26C24.35 17.26 24.6 17.52 24.6 17.84L24.6 29.82C24.6 30.14 24.35 30.4 24.03 30.4C23.7 30.4 23.45 30.14 23.45 29.82L23.45 17.84Z" stroke="#276CD3" stroke-opacity="1.000000" stroke-width="0.858974"/>
			<path id="Vector" d="M17.26 24.02C17.26 23.7 17.52 23.44 17.84 23.44L29.82 23.44C30.14 23.44 30.4 23.7 30.4 24.02L30.4 24.02C30.4 24.34 30.14 24.6 29.82 24.6L17.84 24.6C17.52 24.6 17.26 24.34 17.26 24.02L17.26 24.02ZM38.4 47.65C38.21 47.45 38.21 47.14 38.41 46.95L46.97 38.42C47.17 38.22 47.49 38.23 47.69 38.43L47.69 38.43C47.88 38.63 47.87 38.94 47.68 39.14L39.12 47.66C38.92 47.86 38.59 47.86 38.4 47.65L38.4 47.65Z" fill="#276CD3" fill-opacity="1.000000" fill-rule="evenodd"/>
			<path id="Vector" d="M29.82 23.44C30.14 23.44 30.4 23.7 30.4 24.02C30.4 24.34 30.14 24.6 29.82 24.6L17.84 24.6C17.52 24.6 17.26 24.34 17.26 24.02C17.26 23.7 17.52 23.44 17.84 23.44L29.82 23.44ZM46.97 38.42C47.17 38.22 47.49 38.23 47.69 38.43C47.88 38.63 47.87 38.94 47.68 39.14L39.12 47.66C38.92 47.86 38.59 47.86 38.4 47.65C38.21 47.45 38.21 47.14 38.41 46.95L46.97 38.42Z" stroke="#276CD3" stroke-opacity="1.000000" stroke-width="0.858974"/>
			<path id="Vector" d="M38.43 38.39C38.63 38.21 38.94 38.21 39.14 38.41L47.66 46.97C47.86 47.17 47.86 47.49 47.65 47.69L47.65 47.69C47.45 47.88 47.14 47.87 46.95 47.68L38.42 39.12C38.22 38.92 38.23 38.59 38.43 38.39L38.43 38.39ZM18.03 45.28C18.03 44.96 18.29 44.7 18.61 44.7L29.05 44.7C29.37 44.7 29.63 44.96 29.63 45.28L29.63 45.28C29.63 45.6 29.37 45.86 29.05 45.86L18.61 45.86C18.29 45.86 18.03 45.6 18.03 45.28L18.03 45.28ZM18.03 40.26C18.03 39.94 18.29 39.68 18.61 39.68L29.05 39.68C29.37 39.68 29.63 39.94 29.63 40.26L29.63 40.26C29.63 40.58 29.37 40.84 29.05 40.84L18.61 40.84C18.29 40.84 18.03 40.58 18.03 40.26L18.03 40.26ZM36.59 24.02C36.59 23.7 36.85 23.44 37.17 23.44L49.15 23.44C49.47 23.44 49.73 23.7 49.73 24.02L49.73 24.02C49.73 24.34 49.47 24.6 49.15 24.6L37.17 24.6C36.85 24.6 36.59 24.34 36.59 24.02L36.59 24.02Z" fill="#276CD3" fill-opacity="1.000000" fill-rule="evenodd"/>
			<path id="Vector" d="M47.66 46.97C47.86 47.17 47.86 47.49 47.65 47.69C47.45 47.88 47.14 47.87 46.95 47.68L38.42 39.12C38.22 38.92 38.23 38.59 38.43 38.39C38.63 38.21 38.94 38.21 39.14 38.41L47.66 46.97ZM29.05 44.7C29.37 44.7 29.63 44.96 29.63 45.28C29.63 45.6 29.37 45.86 29.05 45.86L18.61 45.86C18.29 45.86 18.03 45.6 18.03 45.28C18.03 44.96 18.29 44.7 18.61 44.7L29.05 44.7ZM29.05 39.68C29.37 39.68 29.63 39.94 29.63 40.26C29.63 40.58 29.37 40.84 29.05 40.84L18.61 40.84C18.29 40.84 18.03 40.58 18.03 40.26C18.03 39.94 18.29 39.68 18.61 39.68L29.05 39.68ZM49.15 23.44C49.47 23.44 49.73 23.7 49.73 24.02C49.73 24.34 49.47 24.6 49.15 24.6L37.17 24.6C36.85 24.6 36.59 24.34 36.59 24.02C36.59 23.7 36.85 23.44 37.17 23.44L49.15 23.44Z" stroke="#276CD3" stroke-opacity="1.000000" stroke-width="0.858974"/>
		</g>
	</g>
</svg>
