<svg width="80" height="80" viewBox="0 0 80 80" fill="none" xmlns="http://www.w3.org/2000/svg">
<g clip-path="url(#clip0_1_3001)">
<rect x="-3.84082" y="17.3726" width="30" height="94" rx="12" transform="rotate(-45 -3.84082 17.3726)" fill="#EAF1FB"/>
<path d="M75.5469 12.9844H58.9062C58.4957 12.9832 58.089 13.0636 57.7097 13.2207C57.3304 13.3778 56.986 13.6086 56.6966 13.8997L48.6003 21.9959C47.8676 22.7327 46.996 23.3168 46.036 23.7144C45.076 24.1121 44.0467 24.3154 43.0077 24.3125H42.1094V21.3438C42.1094 21.0951 42.0106 20.8567 41.8348 20.6809C41.659 20.505 41.4205 20.4063 41.1719 20.4063H39.7395V16.6039C39.7395 16.3553 39.6408 16.1168 39.4649 15.941C39.2891 15.7652 39.0507 15.6664 38.802 15.6664H34.1667C33.9181 15.6664 33.6796 15.7652 33.5038 15.941C33.328 16.1168 33.2292 16.3553 33.2292 16.6039V20.4063H31.7969C31.5482 20.4063 31.3098 20.505 31.134 20.6809C30.9581 20.8567 30.8594 21.0951 30.8594 21.3438V24.3125H25.3906C25.142 24.3125 24.9035 24.4113 24.7277 24.5871C24.5519 24.7629 24.4531 25.0014 24.4531 25.25V29.625C24.4531 29.8737 24.5519 30.1121 24.7277 30.2879C24.9035 30.4637 25.142 30.5625 25.3906 30.5625H30.8594V33.375H25.3125C25.0639 33.375 24.8254 33.4738 24.6496 33.6496C24.4738 33.8254 24.375 34.0639 24.375 34.3125V39.7813H14.7656V38.8438C14.7648 38.181 14.5012 37.5455 14.0325 37.0769C13.5639 36.6082 12.9284 36.3445 12.2656 36.3438H3.82812C3.16532 36.3445 2.5299 36.6082 2.06123 37.0769C1.59256 37.5455 1.32891 38.181 1.32812 38.8438V64.4688C1.32891 65.1316 1.59256 65.767 2.06123 66.2357C2.5299 66.7043 3.16532 66.968 3.82812 66.9688H12.2656C12.9284 66.968 13.5639 66.7043 14.0325 66.2357C14.5012 65.767 14.7648 65.1316 14.7656 64.4688V63.5313H58.2031V64.4763C58.2045 65.1368 58.4667 65.7701 58.9327 66.2383C59.3987 66.7065 60.0307 66.9717 60.6913 66.9763L69.1288 67.0164H69.1409C69.804 67.0164 70.4399 66.753 70.9087 66.2842C71.3775 65.8153 71.6409 65.1795 71.6409 64.5164V38.8985C71.6402 38.2356 71.3766 37.6002 70.9079 37.1315C70.4392 36.6628 69.8037 36.3992 69.1409 36.3985H60.7034C60.0406 36.3992 59.4052 36.6628 58.9365 37.1315C58.4678 37.6002 58.2042 38.2356 58.2034 38.8985V39.7813H48.5938V34.3125C48.5938 34.0639 48.495 33.8254 48.3192 33.6496C48.1433 33.4738 47.9049 33.375 47.6562 33.375H42.1094V30.5625H43.0077C44.8678 30.5676 46.7105 30.2037 48.4291 29.4918C50.1476 28.78 51.7079 27.7344 53.0197 26.4155L60.2006 19.2344H75.5469C76.3757 19.2344 77.1705 18.9051 77.7566 18.3191C78.3426 17.733 78.6719 16.9382 78.6719 16.1094C78.6719 15.2806 78.3426 14.4857 77.7566 13.8997C77.1705 13.3136 76.3757 12.9844 75.5469 12.9844ZM12.8906 64.4688C12.8906 64.6345 12.8248 64.7935 12.7076 64.9107C12.5904 65.0279 12.4314 65.0938 12.2656 65.0938H3.82812C3.66236 65.0938 3.50339 65.0279 3.38618 64.9107C3.26897 64.7935 3.20312 64.6345 3.20312 64.4688V57.9063H12.8906V64.4688ZM12.8906 56.0313H3.20312V47.2813H12.8906V56.0313ZM12.8906 45.4063H3.20312V38.8438C3.20312 38.678 3.26897 38.519 3.38618 38.4018C3.50339 38.2846 3.66236 38.2188 3.82812 38.2188H12.2656C12.4314 38.2188 12.5904 38.2846 12.7076 38.4018C12.8248 38.519 12.8906 38.678 12.8906 38.8438V45.4063ZM60.0781 38.8988C60.0781 38.733 60.144 38.574 60.2612 38.4568C60.3784 38.3396 60.5374 38.2738 60.7031 38.2738H69.1406C69.3064 38.2738 69.4654 38.3396 69.5826 38.4568C69.6998 38.574 69.7656 38.733 69.7656 38.8988V45.4063H60.0781V38.8988ZM60.0781 47.2813H69.7656V56.0313H60.0781V47.2813ZM60.0781 57.9063H69.7656V64.5156C69.7656 64.6814 69.6998 64.8404 69.5826 64.9576C69.4654 65.0748 69.3064 65.1406 69.1406 65.1406H69.1375L60.7 65.1005C60.5349 65.0994 60.3768 65.0331 60.2603 64.916C60.1438 64.799 60.0783 64.6406 60.078 64.4755L60.0781 57.9063ZM35.1042 17.5414H37.8645V20.4063H35.1042V17.5414ZM32.7344 22.2813H40.2344V24.3125H32.7344V22.2813ZM26.25 35.25H29.375V39.7813H26.25V35.25ZM43.5938 35.25H46.7188V39.7813H43.5938V35.25ZM58.2031 41.6563V61.6563H14.7656V41.6563H58.2031ZM40.2344 33.375H32.7344V30.5625H40.2344V33.375ZM41.7188 35.25V39.7813H37.5V35.25H41.7188ZM35.625 35.25V39.7813H31.25V35.25H35.625ZM75.5469 17.3594H59.8125C59.6894 17.3594 59.5675 17.3836 59.4537 17.4307C59.34 17.4778 59.2366 17.5469 59.1495 17.6339L51.6941 25.0895C50.556 26.2338 49.2023 27.141 47.7112 27.7586C46.2202 28.3762 44.6215 28.6919 43.0077 28.6875H26.3281V26.1875H43.0077C44.293 26.191 45.5664 25.9396 46.7539 25.4477C47.9415 24.9558 49.0197 24.2333 49.9261 23.3219L58.0223 15.2255C58.1382 15.109 58.2759 15.0167 58.4276 14.9539C58.5794 14.8911 58.742 14.8589 58.9062 14.8594H75.5469C75.8784 14.8594 76.1963 14.9911 76.4308 15.2255C76.6652 15.4599 76.7969 15.7779 76.7969 16.1094C76.7969 16.4409 76.6652 16.7588 76.4308 16.9933C76.1963 17.2277 75.8784 17.3594 75.5469 17.3594Z" fill="#276CD3"/>
</g>
<defs>
<clipPath id="clip0_1_3001">
<rect width="80" height="80" fill="white"/>
</clipPath>
</defs>
</svg>
