<svg width="80" height="80" viewBox="0 0 80 80" fill="none" xmlns="http://www.w3.org/2000/svg">
<g clip-path="url(#clip0_1_3010)">
<rect x="-3.84082" y="17.3726" width="30" height="94" rx="12" transform="rotate(-45 -3.84082 17.3726)" fill="#EAF1FB"/>
<path d="M29.3875 15.5625C28.65 16.8 11.4375 46.0625 11.4375 56.075C11.45 66.5125 19.9375 75 30.3625 75C40.7875 75 49.275 66.5125 49.275 56.0875C49.275 46.075 32.0625 16.8125 31.325 15.575C30.925 14.8875 29.8 14.8875 29.3875 15.5625ZM30.3625 72.7375C21.175 72.7375 13.7 65.2625 13.7 56.075C13.7 47.975 26.6625 24.825 30.3625 18.3875C34.0625 24.825 47.025 47.975 47.025 56.075C47.025 65.2625 39.55 72.7375 30.3625 72.7375ZM53.5625 5.55C53.3625 5.2125 53 5 52.6 5C52.2 5 51.825 5.2125 51.625 5.55C51.5625 5.6625 45.2375 16.4125 40.8625 26.0625C40.6 26.625 40.8625 27.3 41.425 27.5625C42 27.8125 42.6625 27.5625 42.925 27C46.225 19.7125 50.6625 11.7625 52.6 8.375C55.875 14.1 66.3 32.8125 66.3 39.4C66.3 46.8625 60.4625 52.875 53.0125 53.0875C51.5625 53.1375 51.5875 55.325 53.0375 55.35C61.7375 55.125 68.5625 48.1125 68.55 39.4C68.55 31.025 54.175 6.5875 53.5625 5.55Z" fill="#276CD3"/>
<path d="M19.6377 56.0874C19.6377 55.4624 19.1377 54.9624 18.5127 54.9624C17.8877 54.9624 17.3877 55.4624 17.3877 56.0874C17.3877 63.2499 23.2127 69.0749 30.3752 69.0749C31.8502 69.0749 31.8502 66.8249 30.3752 66.8124C24.4502 66.8124 19.6377 61.9999 19.6377 56.0874Z" fill="#276CD3"/>
</g>
<defs>
<clipPath id="clip0_1_3010">
<rect width="80" height="80" fill="white"/>
</clipPath>
</defs>
</svg>
