<svg width="64" height="78" viewBox="0 0 64 78" fill="none" xmlns="http://www.w3.org/2000/svg">
<path d="M47.809 50.461C47.4215 50.1876 47.2168 49.7907 47.2168 49.3142V8.52979C47.2168 4.13603 43.6402 0.561035 39.2449 0.561035C34.8512 0.561035 31.2762 4.13603 31.2762 8.52979V49.3126C31.2762 49.7954 31.0762 50.1813 30.6809 50.4595C26.7465 53.2438 24.398 57.7782 24.398 62.5907C24.398 70.7767 31.059 77.4376 39.2449 77.4376C47.434 77.4376 54.0965 70.7782 54.0965 62.5907C54.0965 57.7813 51.7465 53.247 47.809 50.461ZM39.2449 75.561C32.0934 75.561 26.2762 69.7439 26.2762 62.5923C26.2762 58.3892 28.3277 54.4267 31.7637 51.9954C32.6605 51.3642 33.1543 50.4126 33.1543 49.3142V8.52979C33.1543 5.17197 35.8855 2.43916 39.2449 2.43916C42.6059 2.43916 45.3387 5.17041 45.3387 8.52979V49.3126C45.3387 50.4079 45.8309 51.3595 46.723 51.9923C50.1637 54.4267 52.2168 58.3892 52.2168 62.5907C52.2184 69.7423 46.3996 75.561 39.2449 75.561ZM44.3793 53.8188L43.223 53.1423C42.773 52.8782 42.5262 52.4485 42.5262 51.9329V39.536C42.5262 37.7267 41.0543 36.2548 39.2449 36.2548C37.4355 36.2548 35.9637 37.7267 35.9637 39.536V51.9329C35.9637 52.4501 35.7168 52.8798 35.273 53.1423L34.1105 53.822C31.0105 55.6438 29.0855 59.0048 29.0855 62.5954C29.0855 68.1985 33.6434 72.7563 39.2465 72.7563C44.8496 72.7563 49.4074 68.1985 49.4074 62.5954C49.4059 59.0017 47.4809 55.6407 44.3793 53.8188ZM39.2449 70.8751C34.6777 70.8751 30.9621 67.1595 30.9621 62.5923C30.9621 59.6657 32.5324 56.9235 35.059 55.4392L36.223 54.7595C37.2512 54.1532 37.8402 53.122 37.8402 51.9314V39.5345C37.8402 38.7735 38.4824 38.1298 39.2449 38.1298C40.0074 38.1298 40.6496 38.7735 40.6496 39.5345V51.9314C40.6496 53.1235 41.2418 54.1548 42.2746 54.761L43.4293 55.4376C45.9574 56.9235 47.5277 59.6642 47.5277 62.5923C47.5277 67.1595 43.8121 70.8751 39.2449 70.8751ZM52.8652 11.4313C52.8652 10.9126 53.2855 10.4923 53.8043 10.4923H58.9074C59.4262 10.4923 59.8465 10.9126 59.8465 11.4313C59.8465 11.9501 59.4262 12.3704 58.9074 12.3704H53.8043C53.2855 12.3704 52.8652 11.9501 52.8652 11.4313ZM52.8652 16.3954C52.8652 15.8767 53.2855 15.4563 53.8043 15.4563H62.0949C62.6137 15.4563 63.034 15.8767 63.034 16.3954C63.034 16.9142 62.6137 17.3345 62.0949 17.3345H53.8043C53.2855 17.3345 52.8652 16.9142 52.8652 16.3954ZM52.8652 21.361C52.8652 20.8423 53.2855 20.422 53.8043 20.422H58.9074C59.4262 20.422 59.8465 20.8423 59.8465 21.361C59.8465 21.8798 59.4262 22.3001 58.9074 22.3001H53.8043C53.2855 22.3001 52.8652 21.8798 52.8652 21.361ZM63.034 26.322C63.034 26.8407 62.6137 27.261 62.0949 27.261H53.8043C53.2855 27.261 52.8652 26.8407 52.8652 26.322C52.8652 25.8032 53.2855 25.3829 53.8043 25.3829H62.0949C62.6137 25.3829 63.034 25.8032 63.034 26.322ZM52.8652 31.286C52.8652 30.7673 53.2855 30.347 53.8043 30.347H58.9074C59.4262 30.347 59.8465 30.7673 59.8465 31.286C59.8465 31.8048 59.4262 32.2251 58.9074 32.2251H53.8043C53.2855 32.2251 52.8652 31.8048 52.8652 31.286ZM63.034 36.2517C63.034 36.7704 62.6137 37.1907 62.0949 37.1907H53.8043C53.2855 37.1907 52.8652 36.7704 52.8652 36.2517C52.8652 35.7329 53.2855 35.3126 53.8043 35.3126H62.0949C62.6137 35.3126 63.034 35.7329 63.034 36.2517ZM52.8652 41.2173C52.8652 40.6985 53.2855 40.2782 53.8043 40.2782H58.9074C59.4262 40.2782 59.8465 40.6985 59.8465 41.2173C59.8465 41.736 59.4262 42.1563 58.9074 42.1563H53.8043C53.2855 42.1563 52.8652 41.736 52.8652 41.2173ZM63.034 46.1813C63.034 46.7001 62.6137 47.1204 62.0949 47.1204H53.8043C53.2855 47.1204 52.8652 46.7001 52.8652 46.1813C52.8652 45.6626 53.2855 45.2423 53.8043 45.2423H62.0949C62.6137 45.2423 63.034 45.6642 63.034 46.1813ZM25.4043 22.686C25.923 22.686 26.3434 22.2657 26.3434 21.747C26.3434 21.2282 25.923 20.8079 25.4043 20.8079H22.5371L18.4043 16.6751C18.6793 16.247 18.8824 15.7673 18.9949 15.2548H24.8387L26.8621 17.2782C27.0449 17.461 27.2855 17.5532 27.5262 17.5532C27.7668 17.5532 28.0074 17.461 28.1902 17.2782C28.2775 17.1911 28.3468 17.0876 28.3941 16.9736C28.4413 16.8597 28.4656 16.7375 28.4656 16.6142C28.4656 16.4908 28.4413 16.3687 28.3941 16.2547C28.3468 16.1408 28.2775 16.0372 28.1902 15.9501L26.5543 14.3142L28.1902 12.6751C28.366 12.4987 28.4646 12.2597 28.4643 12.0107C28.464 11.7617 28.3649 11.523 28.1887 11.347C28.0123 11.1712 27.7733 11.0726 27.5243 11.0729C27.2753 11.0732 27.0365 11.1723 26.8605 11.3485L24.8387 13.3751H18.9965C18.884 12.861 18.6809 12.3813 18.4043 11.9517L22.5387 7.82041H25.4059C25.9246 7.82041 26.3449 7.4001 26.3449 6.88135C26.3449 6.3626 25.9246 5.94229 25.4059 5.94229H23.0887V3.62666C23.0887 3.10791 22.6684 2.6876 22.1496 2.6876C21.6309 2.6876 21.2105 3.10791 21.2105 3.62666V6.49228L17.0746 10.6251C16.6465 10.3501 16.1684 10.1485 15.6559 10.036V4.19229L17.6809 2.16416C17.8566 1.98776 17.9552 1.7488 17.9549 1.49977C17.9546 1.25075 17.8555 1.01202 17.6793 0.836035C17.5029 0.660259 17.2639 0.561692 17.0149 0.561985C16.7659 0.562278 16.5272 0.661407 16.3512 0.837598L14.7168 2.4751L13.0777 0.837598C12.7105 0.47041 12.1168 0.47041 11.7496 0.837598C11.3824 1.20479 11.3824 1.79854 11.7496 2.16572L13.7777 4.19385V10.0376C13.2652 10.1501 12.7855 10.3532 12.3574 10.6282L8.22461 6.49541V3.62666C8.22461 3.10791 7.8043 2.6876 7.28555 2.6876C6.7668 2.6876 6.34648 3.10791 6.34648 3.62666V5.94385H4.0293C3.51055 5.94385 3.09023 6.36416 3.09023 6.88291C3.09023 7.40166 3.51055 7.82197 4.0293 7.82197H6.89492L11.0277 11.9548C10.7482 12.3894 10.5482 12.8704 10.4371 13.3751H4.59336L2.56836 11.347C2.20117 10.9798 1.60742 10.9798 1.24023 11.347C0.873047 11.7142 0.873047 12.3079 1.24023 12.6751L2.8793 14.3142L1.2418 15.9485C0.87461 16.3142 0.874609 16.9095 1.24023 17.2767C1.42305 17.461 1.66367 17.5517 1.9043 17.5517C2.14492 17.5517 2.38398 17.461 2.56836 17.2767L4.59649 15.2517H10.4402C10.5527 15.7642 10.7543 16.2423 11.0293 16.6704L6.89648 20.8063H4.0293C3.51055 20.8063 3.09023 21.2267 3.09023 21.7454C3.09023 22.2642 3.51055 22.6845 4.0293 22.6845H6.34648V25.0017C6.34648 25.5204 6.7668 25.9407 7.28555 25.9407C7.8043 25.9407 8.22461 25.5204 8.22461 25.0017V22.1345L12.3559 18.0001C12.7855 18.2767 13.2652 18.4798 13.7793 18.5923V24.4345L11.7512 26.4579C11.384 26.8235 11.384 27.4188 11.7496 27.786C11.9324 27.9704 12.173 28.061 12.4137 28.061C12.6543 28.061 12.8934 27.9704 13.0777 27.786L14.7168 26.1501L16.3527 27.786C16.5355 27.9688 16.7762 28.061 17.0168 28.061C17.2574 28.061 17.498 27.9688 17.6809 27.786C17.7682 27.6989 17.8374 27.5954 17.8847 27.4814C17.9319 27.3675 17.9563 27.2453 17.9563 27.122C17.9563 26.9986 17.9319 26.8765 17.8847 26.7625C17.8374 26.6486 17.7682 26.5451 17.6809 26.4579L15.6574 24.4345V18.5907C16.1699 18.4782 16.6496 18.2751 17.0777 18.0001L21.2105 22.1329V25.0001C21.2105 25.5188 21.6309 25.9392 22.1496 25.9392C22.6684 25.9392 23.0887 25.5188 23.0887 25.0001V22.6829H25.4043V22.686ZM16.484 16.0813C16.4809 16.0845 16.4793 16.0876 16.4777 16.0892C16.0246 16.5376 15.4027 16.8157 14.7168 16.8157C13.3371 16.8157 12.2137 15.6938 12.2137 14.3126C12.2137 12.9313 13.3371 11.8126 14.7168 11.8126C16.0965 11.8126 17.2199 12.936 17.2199 14.3157C17.2199 15.0017 16.9418 15.6235 16.4934 16.0767L16.484 16.0813Z" fill="#276CD3"/>
</svg>
