<svg width="10" height="10" viewBox="0 0 10 10" fill="none" xmlns="http://www.w3.org/2000/svg">
<path d="M9.99992 3.57088V6.42912C9.99795 6.53755 9.95455 6.64111 9.87861 6.71854C9.80267 6.79596 9.69996 6.84138 9.59159 6.84545H8.31058C7.92519 6.85557 7.55839 7.01318 7.28578 7.28579C7.01317 7.5584 6.85556 7.92521 6.84544 8.3106V9.59161C6.84335 9.70063 6.79856 9.80448 6.72071 9.88083C6.64286 9.95719 6.53817 9.99995 6.42913 9.99993H3.57088C3.46245 9.99796 3.35889 9.95455 3.28146 9.87861C3.20404 9.80268 3.15863 9.69998 3.15456 9.59161V8.3106C3.14242 7.92449 2.98306 7.55764 2.70916 7.28523C2.43527 7.01282 2.06755 6.85548 1.68138 6.84545H0.408384C0.299361 6.84335 0.195521 6.79857 0.119168 6.72072C0.0428146 6.64287 6.00065e-05 6.53817 8.01717e-05 6.42912V3.57088C-0.000981594 3.51726 0.00851132 3.46395 0.0280562 3.414C0.0476011 3.36405 0.0768133 3.31845 0.113988 3.27979C0.151163 3.24112 0.195588 3.21017 0.24473 3.18868C0.293872 3.16719 0.34677 3.15559 0.400394 3.15455H1.68939C2.07478 3.14443 2.44159 2.98682 2.7142 2.71421C2.9868 2.44161 3.14444 2.0748 3.15456 1.68941V0.408398C3.15666 0.299374 3.20144 0.195525 3.27929 0.119172C3.35714 0.0428191 3.46183 5.83502e-05 3.57088 7.85154e-05H6.42913C6.48342 -0.000986227 6.53738 0.00878754 6.58784 0.0288303C6.63831 0.0488731 6.68426 0.0787827 6.72303 0.116805C6.7618 0.154828 6.79259 0.2002 6.81361 0.250269C6.83463 0.300338 6.84545 0.354096 6.84544 0.408398V1.68941C6.85354 2.07407 7.00941 2.44086 7.28072 2.71366C7.55204 2.98647 7.91798 3.14435 8.30259 3.15455H9.59159C9.6459 3.15454 9.69966 3.16537 9.74973 3.18638C9.79979 3.2074 9.84518 3.2382 9.8832 3.27696C9.92123 3.31573 9.95112 3.3617 9.97116 3.41216C9.99121 3.46263 10.001 3.51659 9.99992 3.57088Z" fill="#C9DAF4"/>
</svg>
