<svg width="80" height="80" viewBox="0 0 80 80" fill="none" xmlns="http://www.w3.org/2000/svg">
<g clip-path="url(#clip0_1_2980)">
<rect x="-3.84082" y="17.3726" width="30" height="94" rx="12" transform="rotate(-45 -3.84082 17.3726)" fill="#EAF1FB"/>
<path d="M74.528 60.0336H71.1459V58.2523C71.1457 57.8564 70.9883 57.4767 70.7084 57.1965C70.4285 56.9164 70.049 56.7587 69.653 56.7581H63.237C62.841 56.7587 62.4615 56.9164 62.1816 57.1965C61.9017 57.4767 61.7444 57.8564 61.7441 58.2523V63.0805H58.9042V62.7473C58.9037 62.312 58.7305 61.8946 58.4226 61.5868C58.1148 61.279 57.6974 61.1058 57.262 61.1053H45.0495V51.3739C50.8204 50.1923 56.0065 47.055 59.7318 42.4921C63.4572 37.9292 65.4935 32.2202 65.4967 26.3297C65.4967 12.2422 54.0591 0.78125 40.0003 0.78125C25.9416 0.78125 14.5039 12.2422 14.5039 26.3297C14.5072 32.1919 16.524 37.8751 20.2166 42.428C23.9093 46.981 29.0538 50.1275 34.7891 51.3408V61.1055H22.6781C22.2428 61.106 21.8254 61.2791 21.5175 61.5869C21.2097 61.8948 21.0365 62.3121 21.0359 62.7475V63.0806H18.3128V58.2525C18.3125 57.8565 18.1552 57.4768 17.8753 57.1967C17.5954 56.9166 17.2158 56.7589 16.8198 56.7583H10.4047C10.0087 56.7589 9.62913 56.9166 9.34924 57.1967C9.06936 57.4768 8.91201 57.8565 8.91172 58.2525V60.0338H5.47266C5.22402 60.0337 4.98556 60.1325 4.80974 60.3083C4.63393 60.4842 4.53516 60.7226 4.53516 60.9713V75.1623C4.53516 75.411 4.63393 75.6494 4.80974 75.8253C4.98556 76.0011 5.22402 76.0998 5.47266 76.0998H8.91172V77.7248C8.91205 78.1208 9.06942 78.5004 9.34931 78.7805C9.6292 79.0606 10.0087 79.2182 10.4047 79.2188H16.8205C17.2164 79.2182 17.596 79.0605 17.8759 78.7804C18.1558 78.5003 18.3131 78.1207 18.3134 77.7247V72.8966H21.0359V73.2295C21.0364 73.6649 21.2095 74.0824 21.5174 74.3903C21.8253 74.6982 22.2427 74.8714 22.6781 74.8719H57.262C57.6974 74.8714 58.1149 74.6982 58.4227 74.3903C58.7306 74.0824 58.9038 73.6649 58.9042 73.2295V72.8966H61.7441V77.7247C61.7444 78.1207 61.9017 78.5003 62.1816 78.7804C62.4615 79.0605 62.8411 79.2182 63.237 79.2188H69.653C70.0489 79.2181 70.4285 79.0605 70.7084 78.7804C70.9882 78.5003 71.1456 78.1206 71.1459 77.7247V76.0997H74.528C74.7766 76.0997 75.0151 76.0009 75.1909 75.8251C75.3667 75.6493 75.4655 75.4108 75.4655 75.1622V60.9711C75.4655 60.7225 75.3667 60.484 75.1909 60.3082C75.0151 60.1324 74.7766 60.0336 74.528 60.0336ZM8.91172 74.2247H6.41016V61.9086H8.91172V74.2247ZM16.4378 77.3438H10.7867V72.6544H16.4378V77.3438ZM16.4378 70.7794H10.7867V65.2705H16.4378V70.7794ZM16.4378 63.3955H10.7867V58.6331H16.4378V63.3955ZM21.0353 71.0213H18.3128V64.9556H21.0353V71.0213ZM16.3791 26.3297C16.3789 13.2761 26.9755 2.65625 40.0003 2.65625C53.0252 2.65625 63.6217 13.2761 63.6217 26.3297C63.6217 39.3833 53.0252 50.0031 40.0003 50.0031C26.9755 50.0031 16.3791 39.3833 16.3791 26.3297ZM43.1745 51.6803V61.1055H36.6641V51.6592C38.8244 51.9439 41.0124 51.9509 43.1745 51.6803ZM57.0292 72.9966H22.9109V62.9809H57.0292V72.9966ZM61.7441 71.0213H58.9042V64.9556H61.7441V71.0213ZM69.2709 77.3438H63.6191V72.6544H69.2709V77.3438ZM69.2709 70.7794H63.6191V65.2705H69.2709V70.7794ZM69.2709 63.3955H63.6191V58.6331H69.2709V63.3955ZM73.5905 74.2247H71.1459V61.9086H73.5905V74.2247Z" fill="#276CD3"/>
<path d="M25.0003 67.1875H25.3128C25.5615 67.1875 25.7999 67.0887 25.9757 66.9129C26.1515 66.7371 26.2503 66.4986 26.2503 66.25C26.2503 66.0013 26.1515 65.7629 25.9757 65.587C25.7999 65.4112 25.5615 65.3125 25.3128 65.3125H25.0003C24.7517 65.3125 24.5132 65.4112 24.3374 65.587C24.1616 65.7629 24.0628 66.0013 24.0628 66.25C24.0628 66.4986 24.1616 66.7371 24.3374 66.9129C24.5132 67.0887 24.7517 67.1875 25.0003 67.1875ZM28.4378 67.1875H42.8128C43.0614 67.1875 43.2999 67.0887 43.4757 66.9129C43.6515 66.7371 43.7503 66.4986 43.7503 66.25C43.7503 66.0013 43.6515 65.7629 43.4757 65.587C43.2999 65.4112 43.0614 65.3125 42.8128 65.3125H28.4378C28.1892 65.3125 27.9507 65.4112 27.7749 65.587C27.5991 65.7629 27.5003 66.0013 27.5003 66.25C27.5003 66.4986 27.5991 66.7371 27.7749 66.9129C27.9507 67.0887 28.1892 67.1875 28.4378 67.1875ZM34.1342 38.4707V41.0998C34.1347 41.5141 34.2994 41.9112 34.5924 42.2041C34.8853 42.4971 35.2825 42.6618 35.6967 42.6623H44.3039C44.7182 42.6618 45.1153 42.4971 45.4083 42.2041C45.7012 41.9112 45.8659 41.5141 45.8664 41.0998V38.4707C45.8659 38.0565 45.7012 37.6593 45.4083 37.3664C45.1153 37.0735 44.7182 36.9087 44.3039 36.9082H35.6967C35.2825 36.9087 34.8853 37.0735 34.5924 37.3664C34.2994 37.6593 34.1347 38.0565 34.1342 38.4707ZM40.9378 38.7832H43.9914V40.7873H40.9378V38.7832ZM36.0092 38.7832H39.0628V40.7873H36.0092V38.7832ZM48.5667 26.355C48.5667 26.6036 48.6655 26.8421 48.8413 27.0179C49.0171 27.1937 49.2556 27.2925 49.5042 27.2925H55.2681C55.5168 27.2925 55.7552 27.1937 55.931 27.0179C56.1068 26.8421 56.2056 26.6036 56.2056 26.355C56.2056 17.3351 48.882 9.99683 39.8802 9.99683C30.8783 9.99683 23.5547 17.3351 23.5547 26.355C23.5547 26.6036 23.6535 26.8421 23.8293 27.0179C24.0051 27.1937 24.2435 27.2925 24.4922 27.2925H30.0472C30.2958 27.2925 30.5343 27.1937 30.7101 27.0179C30.8859 26.8421 30.9847 26.6036 30.9847 26.355C30.9847 24.0233 31.9109 21.7872 33.5596 20.1385C35.2083 18.4898 37.4445 17.5635 39.7761 17.5635C42.1077 17.5635 44.3438 18.4898 45.9926 20.1385C47.6413 21.7872 48.5675 24.0233 48.5675 26.355H48.5667ZM52.0941 18.6282C53.3878 20.6703 54.1468 23.005 54.3014 25.4175H50.4011C50.2611 23.8144 49.7589 22.2641 48.9323 20.8835L52.0941 18.6282ZM29.1503 25.4175H25.4595C25.619 22.9136 26.4294 20.4948 27.8105 18.4003L30.8261 20.5512C29.877 22.0114 29.3013 23.6825 29.1497 25.4175H29.1503ZM31.9805 19.0714L28.9428 16.9045C30.4212 15.1854 32.2817 13.8365 34.3753 12.9659L35.5808 16.5321C34.2174 17.1198 32.9912 17.9845 31.9798 19.0714H31.9805ZM42.5995 16.0509C40.89 15.5786 39.0894 15.5425 37.3623 15.946L36.1519 12.3648C38.6677 11.6881 41.3203 11.7084 43.8255 12.4237L42.5995 16.0509ZM45.5912 13.0553C47.6854 13.9639 49.5358 15.3534 50.9925 17.111L47.8341 19.3642C46.8697 18.2493 45.686 17.345 44.3567 16.7079L45.5912 13.0553Z" fill="#276CD3"/>
<path d="M46.1671 24.0021C45.9913 23.8263 45.7528 23.7275 45.5042 23.7275C45.2556 23.7275 45.0171 23.8263 44.8413 24.0021L41.1627 27.6807C40.6338 27.4267 40.039 27.3433 39.4606 27.4419C38.8823 27.5405 38.3488 27.8163 37.9339 28.2312C37.519 28.646 37.2432 29.1795 37.1446 29.7579C37.046 30.3363 37.1294 30.931 37.3834 31.46L36.0023 32.841C35.8265 33.0168 35.7278 33.2553 35.7278 33.5039C35.7278 33.7526 35.8265 33.991 36.0023 34.1668C36.1782 34.3427 36.4166 34.4414 36.6653 34.4414C36.9139 34.4414 37.1524 34.3427 37.3282 34.1668L38.7092 32.7858C39.2382 33.0398 39.8329 33.1232 40.4113 33.0246C40.9897 32.926 41.5231 32.6502 41.938 32.2353C42.3529 31.8204 42.6287 31.2869 42.7273 30.7085C42.8259 30.1302 42.7425 29.5354 42.4885 29.0065L46.1671 25.3279C46.3429 25.1521 46.4417 24.9136 46.4417 24.665C46.4417 24.4163 46.3429 24.1779 46.1671 24.0021ZM40.612 30.9097C40.4778 31.0427 40.3072 31.133 40.1217 31.1691C39.9362 31.2053 39.7441 31.1856 39.5698 31.1127C39.3955 31.0398 39.2466 30.9169 39.1421 30.7594C39.0376 30.602 38.982 30.4172 38.9824 30.2282C38.9829 30.0392 39.0393 29.8546 39.1445 29.6977C39.2498 29.5407 39.3992 29.4185 39.5738 29.3463C39.7485 29.2742 39.9406 29.2555 40.1259 29.2924C40.3113 29.3294 40.4815 29.4205 40.6151 29.5541C40.7942 29.7343 40.8945 29.9783 40.8939 30.2324C40.8934 30.4865 40.7919 30.7302 40.612 30.9097Z" fill="#276CD3"/>
<path d="M61.1898 26.3297C61.1898 14.6223 51.6845 5.09766 40.0007 5.09766C29.5709 5.09766 20.8779 12.688 19.1321 22.6445C19.0891 22.8895 19.1452 23.1414 19.288 23.345C19.4308 23.5486 19.6486 23.6872 19.8935 23.7302C20.1385 23.7731 20.3905 23.7171 20.594 23.5743C20.7976 23.4315 20.9362 23.2137 20.9792 22.9687C22.5715 13.8916 30.4946 6.97266 40.0007 6.97266C50.6506 6.97266 59.3148 15.6562 59.3148 26.3297C59.3148 37.0031 50.6506 45.6875 40.0007 45.6875C30.2351 45.6875 22.1414 38.3859 20.8634 28.9442C20.8342 28.7182 20.724 28.5105 20.5531 28.3598C20.3822 28.2091 20.1623 28.1257 19.9345 28.125C19.8005 28.1251 19.6682 28.1539 19.5462 28.2094C19.4243 28.2649 19.3157 28.3459 19.2276 28.4468C19.1396 28.5477 19.0741 28.6664 19.0356 28.7947C18.9972 28.923 18.9866 29.058 19.0046 29.1908C20.4034 39.55 29.2853 47.5625 40.0007 47.5625C51.6845 47.5625 61.1898 38.037 61.1898 26.3297Z" fill="#276CD3"/>
</g>
<defs>
<clipPath id="clip0_1_2980">
<rect width="80" height="80" fill="white"/>
</clipPath>
</defs>
</svg>
