<svg width="101" height="100" viewBox="0 0 101 100" fill="none" xmlns="http://www.w3.org/2000/svg">
<path fill-rule="evenodd" clip-rule="evenodd" d="M18.866 6.42907C19.3668 5.93344 20.1289 5.9717 20.592 6.4025L29.0453 8.9529C29.3063 9.03166 29.5441 9.17312 29.7379 9.36494L41.9523 21.4545C42.1582 21.6583 42.3076 21.9122 42.3858 22.1912L44.8752 31.078C45.1136 31.4925 45.0708 32.0448 44.6953 32.4165L38.8655 38.1867C38.411 38.6366 37.7395 38.7875 37.1362 38.5754L29.174 35.7758L17.6318 47.2C16.9808 47.8443 15.9324 47.8443 15.2814 47.2L3.77321 35.8094C3.1127 35.1557 3.1127 34.0885 3.77321 33.4348L15.3211 22.0049L12.7865 13.7034C12.6053 13.1098 12.768 12.4648 13.2091 12.0282L18.866 6.42907ZM40.4793 22.8171L42.4799 29.959L35.6881 27.5851L23.5705 15.5914L21.4867 8.76636L28.3867 10.8481L40.4793 22.8171ZM22.6857 17.5362L33.719 28.4567L28.9148 33.2118L17.8815 22.2913L22.6857 17.5362ZM37.6039 36.6148L30.7582 34.2078L35.404 29.6094L42.2604 32.0059L37.6039 36.6148ZM16.4566 23.7016L27.4899 34.6221L25.8002 36.2945L14.767 25.374L16.4566 23.7016ZM13.3421 26.7843L24.3754 37.7048L22.6857 39.3772L11.6524 28.4567L13.3421 26.7843ZM10.2276 29.867L21.2608 40.7875L19.5712 42.4599L8.53789 31.5394L10.2276 29.867ZM7.11303 32.9497L18.1463 43.8702L16.4566 45.5426L5.42336 34.6221L7.11303 32.9497ZM21.5502 15.8395L16.9308 20.4117L14.7628 13.311L19.3822 8.73877L21.5502 15.8395Z" fill="#93B6EA"/>
<path fill-rule="evenodd" clip-rule="evenodd" d="M18.866 53.2044C19.3668 52.7087 20.1289 52.747 20.592 53.1778L29.0453 55.7282C29.3063 55.807 29.5441 55.9484 29.7379 56.1402L41.9523 68.2298C42.1582 68.4336 42.3076 68.6875 42.3858 68.9665L44.8752 77.8533C45.1136 78.2678 45.0708 78.8201 44.6953 79.1918L38.8655 84.962C38.411 85.4119 37.7395 85.5628 37.1362 85.3507L29.174 82.5511L17.6318 93.9753C16.9808 94.6197 15.9324 94.6197 15.2814 93.9753L3.77321 82.5847C3.1127 81.931 3.1127 80.8638 3.77321 80.2101L15.3211 68.7802L12.7865 60.4787C12.6053 59.8851 12.768 59.2401 13.2091 58.8035L18.866 53.2044ZM40.4793 69.5924L42.4799 76.7343L35.6881 74.3604L23.5705 62.3667L21.4867 55.5417L28.3867 57.6235L40.4793 69.5924ZM22.6857 64.3115L33.719 75.232L28.9148 79.9871L17.8815 69.0666L22.6857 64.3115ZM37.6039 83.3901L30.7582 80.9831L35.404 76.3848L42.2604 78.7812L37.6039 83.3901ZM16.4566 70.4769L27.4899 81.3974L25.8002 83.0698L14.767 72.1493L16.4566 70.4769ZM13.3421 73.5596L24.3754 84.4801L22.6857 86.1525L11.6524 75.232L13.3421 73.5596ZM10.2276 76.6423L21.2608 87.5628L19.5712 89.2352L8.53789 78.3147L10.2276 76.6423ZM7.11303 79.725L18.1463 90.6455L16.4566 92.3179L5.42336 81.3974L7.11303 79.725ZM21.5502 62.6148L16.9308 67.187L14.7628 60.0863L19.3822 55.5141L21.5502 62.6148Z" fill="#93B6EA"/>
<path fill-rule="evenodd" clip-rule="evenodd" d="M77.3939 31.4813C76.826 32.8745 77.4947 34.4643 78.8878 35.0325C80.2812 35.6008 81.8715 34.9318 82.4396 33.5383L85.4281 26.2077C85.9961 24.8145 85.3273 23.2247 83.9342 22.6565C82.5408 22.0882 80.9506 22.7572 80.3824 24.1507L77.3939 31.4813ZM82.2389 24.9075L79.2503 32.2381C79.1003 32.6061 79.277 33.0261 79.6449 33.1762C80.013 33.3263 80.4331 33.1496 80.5832 32.7815L83.5717 25.4509C83.7217 25.0829 83.5451 24.6629 83.1771 24.5128C82.809 24.3627 82.3889 24.5394 82.2389 24.9075Z" fill="#93B6EA"/>
<path fill-rule="evenodd" clip-rule="evenodd" d="M59.7955 61.3192H54.1161C53.7803 61.3192 53.4831 61.154 53.3012 60.9006C53.1005 60.8826 52.8976 60.8269 52.7008 60.7286L47.355 58.0557C46.789 57.7727 46.4315 57.1942 46.4315 56.5615V54.6356H44.761C43.8383 54.6356 43.0904 53.8877 43.0904 52.9651V50.9604C43.0904 50.0378 43.8383 49.2898 44.761 49.2898H46.4315V47.364C46.4315 46.7312 46.789 46.1528 47.355 45.8698L52.7008 43.1969C52.8982 43.0982 53.1017 43.0426 53.303 43.0247C53.4851 42.7727 53.7814 42.6087 54.1161 42.6087H57.5317C58.0163 39.3949 60.7899 36.9311 64.139 36.9311C65.936 36.9311 67.5673 37.6404 68.7682 38.7944L69.9047 36.5214L69.4174 36.3214C66.0032 34.9203 64.3712 31.0167 65.7722 27.6025L71.2343 14.2921C69.5094 13.3073 68.7378 11.1734 69.5066 9.28327C70.344 7.22457 72.6917 6.23449 74.7504 7.07187L94.4142 15.0701C96.4729 15.9075 97.463 18.2552 96.6256 20.3139C95.8515 22.2171 93.7865 23.2071 91.8524 22.6841L86.3662 36.0534C85.5287 38.0943 83.7971 39.4983 81.8104 39.9984C81.8347 40.0849 81.8477 40.1762 81.8477 40.2704V42.6087H83.5181C84.4407 42.6087 85.1887 43.3567 85.1887 44.2793V45.9499H93.7946L95.7014 44.0431C96.7538 42.9907 98.5533 43.736 98.5533 45.2243V55.3624C98.5533 56.8507 96.7538 57.5961 95.7014 56.5437L93.7946 54.6369H85.1887V55.9733H90.2004C91.123 55.9733 91.871 56.7213 91.871 57.6439V62.9897C91.871 63.9123 91.123 64.6603 90.2004 64.6603H85.4693L88.2915 75.9492C88.2975 75.973 88.3029 75.9969 88.3078 76.0207H90.5917C91.0348 76.0207 91.4597 76.1968 91.773 76.51L94.7227 79.4598C95.036 79.773 95.212 80.198 95.212 80.641V83.0371C95.212 83.9598 94.4641 84.7077 93.5414 84.7077H64.8076C63.885 84.7077 63.137 83.9598 63.137 83.0371V80.7772C63.137 80.1445 63.4946 79.566 64.0605 79.283L70.2323 76.1971C70.4643 76.0811 70.7201 76.0207 70.9794 76.0207H72.8784L70.0383 64.6603H68.1489C67.2262 64.6603 66.4783 63.9123 66.4783 62.9897V61.3192H65.1417V69.9823C65.1417 70.5409 64.8626 71.0625 64.3978 71.3723L54.9614 77.6633C54.5079 77.9656 53.9354 78.0277 53.4276 77.8296L51.6058 77.119C50.3466 76.6278 50.1616 74.9224 51.2862 74.1727L59.7953 68.5L59.7955 61.3192ZM68.483 62.6556V60.985C68.483 60.0624 67.735 59.3145 66.8124 59.3145H65.1417V51.1805C65.4604 51.0127 65.6777 50.6783 65.6777 50.2931C65.6777 50.2345 65.6726 50.177 65.6629 50.1211C68.3018 49.5056 70.3398 47.3264 70.7469 44.6134H80.8139L80.8454 44.6139L80.8769 44.6134H83.184V56.3074C83.184 57.2301 83.9319 57.978 84.8546 57.978H89.8663V62.6556H68.483ZM60.826 49.4179C59.0885 48.4241 57.84 46.6725 57.531 44.6134H55.1168C55.1179 44.6391 55.1185 44.665 55.1185 44.6911V59.2344C55.1185 59.2613 55.1179 59.288 55.1167 59.3145H59.7956L59.7959 50.9613C59.7959 50.2655 60.2212 49.6692 60.826 49.4179ZM63.137 61.3192V69.8035L53.9941 75.8988L52.9323 75.4846L61.056 70.0688C61.5208 69.759 61.7999 69.2374 61.7999 68.6789L61.8002 61.3192H63.137ZM63.137 59.3145H61.8003L61.8005 51.2954H63.137V59.3145ZM79.843 42.6087V40.2704C79.843 40.2441 79.8441 40.218 79.8461 40.1921C79.1101 40.1549 78.3678 39.9943 77.6473 39.6986L71.7596 37.2825C71.7474 37.3145 71.7336 37.3463 71.7179 37.3776L70.1058 40.6019C70.4192 41.2216 70.6389 41.8968 70.7463 42.6087H79.843ZM67.4413 44.6134C67.4668 44.6144 67.4923 44.6144 67.5177 44.6134H68.7095C68.2515 46.7163 66.3791 48.291 64.139 48.291C61.8989 48.291 60.0265 46.7163 59.5685 44.6134H67.4413ZM67.809 40.7129L66.861 42.6087H59.5695C60.0293 40.5082 61.9005 38.9358 64.139 38.9358C65.6267 38.9358 66.9522 39.6304 67.809 40.7129ZM83.4029 64.6603H72.1047L74.9447 76.0202H86.2429L83.4029 64.6603ZM74.3914 77.9992C74.318 78.0164 74.2415 78.0254 74.1628 78.0254H71.0583L65.1417 80.9837V82.703H93.2073V80.7794L90.4533 78.0254H87.5274C87.3959 78.0254 87.2704 78.0001 87.1553 77.9541C87.0028 78 86.8403 78.0249 86.6708 78.0249H74.6838C74.5844 78.0249 74.4867 78.0161 74.3914 77.9992ZM46.4315 51.2945H45.0951V52.631H46.4315V51.2945ZM53.1138 45.2317L48.4362 47.5705V56.355L53.1138 58.6938V45.2317ZM93.2074 52.6322H85.1887V47.9546H93.2074V52.6322ZM95.2121 53.2193V47.3674L96.5486 46.031V54.5558L95.2121 53.2193ZM89.899 22.164L73.0142 15.2351L67.6268 28.3635C66.6461 30.7535 67.7885 33.486 70.1784 34.4668L78.4084 37.844C80.7983 38.8247 83.5308 37.6823 84.5116 35.2924L89.899 22.164ZM73.9951 8.92882L93.6589 16.9271C94.692 17.3473 95.1889 18.5255 94.7687 19.5586C94.3484 20.5918 93.1703 21.0886 92.1371 20.6684L72.4733 12.6701C71.4402 12.2499 70.9433 11.0717 71.3635 10.0386C71.7838 9.00545 72.9619 8.50859 73.9951 8.92882Z" fill="#93B6EA"/>
<path fill-rule="evenodd" clip-rule="evenodd" d="M32.398 43.6136C33.3206 43.6136 34.0685 42.8657 34.0685 41.943C34.0685 41.0204 33.3206 40.2725 32.398 40.2725C31.4753 40.2725 30.7274 41.0204 30.7274 41.943C30.7274 42.8657 31.4753 43.6136 32.398 43.6136ZM32.398 41.6089C32.2134 41.6089 32.0638 41.7585 32.0638 41.943C32.0638 42.1276 32.2134 42.2771 32.398 42.2771C32.5825 42.2771 32.7321 42.1276 32.7321 41.943C32.7321 41.7585 32.5825 41.6089 32.398 41.6089Z" fill="#93B6EA"/>
<path fill-rule="evenodd" clip-rule="evenodd" d="M40.7512 48.6257C40.7512 49.5483 40.0033 50.2963 39.0806 50.2963C38.158 50.2963 37.41 49.5483 37.41 48.6257C37.41 47.7031 38.158 46.9551 39.0806 46.9551C40.0033 46.9551 40.7512 47.7031 40.7512 48.6257ZM38.7465 48.6257C38.7465 48.4412 38.8961 48.2916 39.0806 48.2916C39.2651 48.2916 39.4147 48.4412 39.4147 48.6257C39.4147 48.8102 39.2651 48.9598 39.0806 48.9598C38.8961 48.9598 38.7465 48.8102 38.7465 48.6257Z" fill="#93B6EA"/>
<path fill-rule="evenodd" clip-rule="evenodd" d="M32.398 50.2963C33.3206 50.2963 34.0685 49.5483 34.0685 48.6257C34.0685 47.7031 33.3206 46.9551 32.398 46.9551C31.4753 46.9551 30.7274 47.7031 30.7274 48.6257C30.7274 49.5483 31.4753 50.2963 32.398 50.2963ZM32.398 48.2916C32.2134 48.2916 32.0638 48.4412 32.0638 48.6257C32.0638 48.8102 32.2134 48.9598 32.398 48.9598C32.5825 48.9598 32.7321 48.8102 32.7321 48.6257C32.7321 48.4412 32.5825 48.2916 32.398 48.2916Z" fill="#93B6EA"/>
<path fill-rule="evenodd" clip-rule="evenodd" d="M34.0685 55.3077C34.0685 56.2303 33.3206 56.9783 32.398 56.9783C31.4753 56.9783 30.7274 56.2303 30.7274 55.3077C30.7274 54.3851 31.4753 53.6371 32.398 53.6371C33.3206 53.6371 34.0685 54.3851 34.0685 55.3077ZM32.0638 55.3077C32.0638 55.1232 32.2134 54.9736 32.398 54.9736C32.5825 54.9736 32.7321 55.1232 32.7321 55.3077C32.7321 55.4922 32.5825 55.6418 32.398 55.6418C32.2134 55.6418 32.0638 55.4922 32.0638 55.3077Z" fill="#93B6EA"/>
<path fill-rule="evenodd" clip-rule="evenodd" d="M25.7153 50.2963C26.6379 50.2963 27.3858 49.5483 27.3858 48.6257C27.3858 47.7031 26.6379 46.9551 25.7153 46.9551C24.7926 46.9551 24.0447 47.7031 24.0447 48.6257C24.0447 49.5483 24.7926 50.2963 25.7153 50.2963ZM25.7153 48.2916C25.5308 48.2916 25.3812 48.4412 25.3812 48.6257C25.3812 48.8102 25.5308 48.9598 25.7153 48.9598C25.8998 48.9598 26.0494 48.8102 26.0494 48.6257C26.0494 48.4412 25.8998 48.2916 25.7153 48.2916Z" fill="#93B6EA"/>
<path fill-rule="evenodd" clip-rule="evenodd" d="M14.0219 54.0029C14.0219 54.9255 13.2739 55.6735 12.3513 55.6735C11.4287 55.6735 10.6807 54.9255 10.6807 54.0029C10.6807 53.0803 11.4287 52.3323 12.3513 52.3323C13.2739 52.3323 14.0219 53.0803 14.0219 54.0029ZM12.0172 54.0029C12.0172 53.8184 12.1668 53.6688 12.3513 53.6688C12.5358 53.6688 12.6854 53.8184 12.6854 54.0029C12.6854 54.1874 12.5358 54.337 12.3513 54.337C12.1668 54.337 12.0172 54.1874 12.0172 54.0029Z" fill="#93B6EA"/>
<path fill-rule="evenodd" clip-rule="evenodd" d="M7.72618 61.6746C8.64881 61.6746 9.39675 60.9266 9.39675 60.004C9.39675 59.0814 8.64881 58.3334 7.72618 58.3334C6.80355 58.3334 6.05561 59.0814 6.05561 60.004C6.05561 60.9266 6.80355 61.6746 7.72618 61.6746ZM7.72618 59.6699C7.54166 59.6699 7.39207 59.8195 7.39207 60.004C7.39207 60.1885 7.54166 60.3381 7.72618 60.3381C7.91071 60.3381 8.0603 60.1885 8.0603 60.004C8.0603 59.8195 7.91071 59.6699 7.72618 59.6699Z" fill="#93B6EA"/>
<path fill-rule="evenodd" clip-rule="evenodd" d="M40.7512 55.3077C40.7512 56.2303 40.0033 56.9783 39.0806 56.9783C38.158 56.9783 37.41 56.2303 37.41 55.3077C37.41 54.3851 38.158 53.6371 39.0806 53.6371C40.0033 53.6371 40.7512 54.3851 40.7512 55.3077ZM38.7465 55.3077C38.7465 55.1232 38.8961 54.9736 39.0806 54.9736C39.2651 54.9736 39.4147 55.1232 39.4147 55.3077C39.4147 55.4922 39.2651 55.6418 39.0806 55.6418C38.8961 55.6418 38.7465 55.4922 38.7465 55.3077Z" fill="#93B6EA"/>
</svg>
