<svg width="67.000000" height="67.000000" viewBox="0 0 67 67" fill="none" xmlns="http://www.w3.org/2000/svg" xmlns:xlink="http://www.w3.org/1999/xlink">
	<desc>
			Created with Pixso.
	</desc>
	<defs>
		<clipPath id="clip22_17431">
			<rect id="Frame 2608470" rx="-0.558333" width="65.883331" height="65.883331" transform="translate(0.558333 0.558333)" fill="white" fill-opacity="0"/>
		</clipPath>
	</defs>
	<g clip-path="url(#clip22_17431)">
		<rect id="Rectangle 452" x="-1.221741" y="18.983398" rx="11.166667" width="27.916668" height="70.471802" transform="rotate(-45 -1.221741 18.983398)" fill="#276CD3" fill-opacity="0.100000"/>
		<circle id="Ellipse 69" cx="29.922394" cy="29.921875" r="18.755400" fill="#D9D9D9" fill-opacity="0"/>
		<circle id="Ellipse 69" cx="29.922394" cy="29.921875" r="17.080400" stroke="#276CD3" stroke-opacity="1.000000" stroke-width="3.350000"/>
		<path id="Rectangle 453" d="M42.72 39.58C43.2 38.02 45.15 37.52 46.32 38.66L54.87 47.04C56.63 48.77 56.66 51.59 54.94 53.36L54.84 53.46C53.11 55.22 50.29 55.25 48.52 53.52L40.38 45.55C38.97 44.17 39.42 41.81 41.24 41.04L41.49 40.94C42.08 40.69 42.53 40.19 42.72 39.58ZM45.12 42.18L52.53 49.43Q52.69 49.6 52.78 49.79Q52.86 49.99 52.86 50.22Q52.87 50.45 52.79 50.65Q52.71 50.85 52.54 51.01L52.45 51.11Q52.28 51.28 52.09 51.36Q51.89 51.45 51.66 51.45Q51.43 51.45 51.23 51.37Q51.03 51.29 50.87 51.13L43.34 43.76Q43.6 43.61 43.84 43.44Q44.33 43.1 44.74 42.64Q44.94 42.42 45.12 42.18Z" fill="#276CD3" fill-opacity="1.000000" fill-rule="evenodd"/>
		<path id="Vector 89" d="M23.04 29.92L28.04 34.29L38.67 23.66" stroke="#276CD3" stroke-opacity="1.000000" stroke-width="3.350000" stroke-linecap="round"/>
	</g>
</svg>
