<svg width="101" height="100" viewBox="0 0 101 100" fill="none" xmlns="http://www.w3.org/2000/svg">
<path fill-rule="evenodd" clip-rule="evenodd" d="M60.6895 11.1111H41.7493L14.9286 14.2242C14.1288 14.317 13.5255 14.9944 13.5255 15.7996V21.3908L10.0518 29.8578C9.62369 30.9014 10.3911 32.0458 11.5191 32.0458H25.5544C26.4303 32.0458 27.1403 31.3357 27.1403 30.4598V22.53H33.7713C34.1299 22.53 34.4969 22.4084 34.7917 22.1533C35.3897 21.6357 35.9298 21.0201 36.443 20.4353L36.663 20.1851C37.2597 19.5091 37.8618 18.856 38.6005 18.2719C40.0368 17.1363 42.0859 16.1862 45.7083 16.1862C49.4259 16.1862 51.8265 17.1881 53.4387 18.3789C54.8241 19.4022 55.6788 20.5999 56.301 21.5812L53.3007 26.4567C52.6504 27.5134 53.4106 28.8739 54.6514 28.8739H60.6895C61.5654 28.8739 62.2755 28.1638 62.2755 27.2879V12.697C62.2755 11.8211 61.5654 11.1111 60.6895 11.1111ZM11.9921 30.1426L15.1152 22.53H25.2372V30.1426H11.9921ZM33.6453 20.6269H15.4286V16.0821L41.8594 13.0142H60.3723V20.6269H57.9496C57.2816 19.5653 56.2621 18.0983 54.5694 16.8481C52.6031 15.3957 49.7985 14.283 45.7083 14.283C41.697 14.283 39.2223 15.3542 37.4202 16.779C36.5397 17.4751 35.844 18.2371 35.2362 18.9256L35.0081 19.1848C34.52 19.7402 34.0987 20.2195 33.6453 20.6269ZM57.9517 22.53H60.3723V26.9707H55.219L57.9517 22.53Z" fill="#93B6EA"/>
<path fill-rule="evenodd" clip-rule="evenodd" d="M23.2608 50.1243C23.2608 53.6279 20.4205 56.4682 16.9169 56.4682C13.4133 56.4682 10.5731 53.6279 10.5731 50.1243C10.5731 46.6207 13.4133 43.7805 16.9169 43.7805C20.4205 43.7805 23.2608 46.6207 23.2608 50.1243ZM21.3576 50.1243C21.3576 52.5769 19.3694 54.565 16.9169 54.565C14.4644 54.565 12.4762 52.5769 12.4762 50.1243C12.4762 47.6718 14.4644 45.6836 16.9169 45.6836C19.3694 45.6836 21.3576 47.6718 21.3576 50.1243Z" fill="#93B6EA"/>
<path fill-rule="evenodd" clip-rule="evenodd" d="M16.9168 62.8401C16.9017 64.5788 15.4874 65.9841 13.745 65.9841C11.9932 65.9841 10.5731 64.5638 10.5731 62.8122C10.5731 61.0606 11.9932 59.6401 13.745 59.6401C15.4875 59.6401 16.9018 61.0454 16.9168 62.7841C16.9319 61.0455 18.3461 59.6401 20.0886 59.6401C21.8404 59.6401 23.2605 61.0605 23.2605 62.8121C23.2605 64.5637 21.8404 65.9841 20.0886 65.9841C18.3461 65.9841 16.9318 64.5789 16.9168 62.8401ZM13.745 64.081C14.4455 64.081 15.0138 63.5128 15.0138 62.8121C15.0138 62.1115 14.4456 61.5433 13.745 61.5433C13.0445 61.5433 12.4762 62.1115 12.4762 62.8122C12.4762 63.5128 13.0444 64.081 13.745 64.081ZM21.3574 62.8121C21.3574 63.5128 20.7891 64.081 20.0886 64.081C19.388 64.081 18.8198 63.5128 18.8198 62.8122C18.8198 62.1115 19.388 61.5433 20.0886 61.5433C20.7892 61.5433 21.3574 62.1115 21.3574 62.8121Z" fill="#93B6EA"/>
<path fill-rule="evenodd" clip-rule="evenodd" d="M51.8073 59.6403C51.8073 61.3921 50.3873 62.8122 48.6354 62.8122C46.8835 62.8122 45.4635 61.3921 45.4635 59.6403C45.4635 57.8885 46.8835 56.4683 48.6354 56.4683C50.3873 56.4683 51.8073 57.8885 51.8073 59.6403ZM49.9042 59.6403C49.9042 60.341 49.3362 60.909 48.6354 60.909C47.9346 60.909 47.3666 60.341 47.3666 59.6403C47.3666 58.9395 47.9346 58.3715 48.6354 58.3715C49.3362 58.3715 49.9042 58.9395 49.9042 59.6403Z" fill="#93B6EA"/>
<path fill-rule="evenodd" clip-rule="evenodd" d="M48.6362 65.9842C52.1401 65.9842 54.9801 63.144 54.9801 59.6404C54.9801 56.1368 52.1401 53.2966 48.6362 53.2966C45.1324 53.2966 42.2924 56.1368 42.2924 59.6404C42.2924 63.144 45.1324 65.9842 48.6362 65.9842ZM48.6362 64.0811C51.0889 64.0811 53.0769 62.093 53.0769 59.6404C53.0769 57.1878 51.0889 55.1997 48.6362 55.1997C46.1835 55.1997 44.1955 57.1878 44.1955 59.6404C44.1955 62.093 46.1835 64.0811 48.6362 64.0811Z" fill="#93B6EA"/>
<path fill-rule="evenodd" clip-rule="evenodd" d="M4.22949 37.437C4.22949 35.6852 5.64961 34.2651 7.40141 34.2651H26.4329C27.9179 34.2651 29.1645 35.2855 29.5098 36.6633C29.7281 36.5501 29.9761 36.4861 30.239 36.4861H32.1422C33.0181 36.4861 33.7281 37.1962 33.7281 38.0721V39.658H35.3141C36.19 39.658 36.9 40.3681 36.9 41.244V49.491C36.9 50.3669 36.19 51.077 35.3141 51.077H33.7281V52.6629C33.7281 53.5388 33.0181 54.2489 32.1422 54.2489H30.239C30.0135 54.2489 29.7991 54.2018 29.6049 54.117V55.6487C29.7991 55.5639 30.0135 55.5169 30.239 55.5169H35.3141C35.5398 55.5169 35.7544 55.564 35.9488 55.649V53.2967C35.9488 51.5449 37.3689 50.1248 39.1207 50.1248H58.1522C59.904 50.1248 61.3242 51.5449 61.3242 53.2967V55.6487C61.5184 55.5639 61.7328 55.5169 61.9583 55.5169H67.0334C67.1566 55.5169 67.2766 55.5309 67.3918 55.5575C67.479 55.5312 67.5715 55.517 67.6674 55.517H79.4035V54.2482H67.6674C67.1418 54.2482 66.7158 53.8222 66.7158 53.2967C66.7158 52.7711 67.1418 52.3451 67.6674 52.3451H89.2364C90.1123 52.3451 90.8224 53.0551 90.8224 53.931V68.5219C90.8224 69.3978 90.1123 70.1079 89.2364 70.1079H80.9894C80.1135 70.1079 79.4035 69.3978 79.4035 68.5219V66.9359H67.6674C67.5713 66.9359 67.4787 66.9217 67.3913 66.8952C67.2763 66.9218 67.1565 66.9358 67.0334 66.9358H61.9583C61.6953 66.9358 61.4473 66.8718 61.229 66.7585C60.8835 68.1362 59.637 69.1563 58.1522 69.1563H39.1207C37.6358 69.1563 36.3893 68.136 36.0439 66.7583C35.8254 66.8717 35.5772 66.9358 35.3141 66.9358H30.239C29.9761 66.9358 29.7281 66.8718 29.5097 66.7585C29.1642 68.1361 27.9177 69.1563 26.4329 69.1563H7.40141C5.64961 69.1563 4.22949 67.7361 4.22949 65.9843V37.437ZM7.40141 36.1683H26.4329C27.1337 36.1683 27.7017 36.7363 27.7017 37.437V65.9843C27.7017 66.6851 27.1337 67.2531 26.4329 67.2531H7.40141C6.70069 67.2531 6.13265 66.6851 6.13265 65.9843V37.437C6.13265 36.7363 6.70069 36.1683 7.40141 36.1683ZM68.6193 58.6889V57.4202H79.4035V58.6889H68.6193ZM67.0334 60.592C67.1565 60.592 67.2763 60.5779 67.3913 60.5514C67.4787 60.5779 67.5713 60.5921 67.6674 60.5921H79.4035V61.8609H67.6674C67.5715 61.8609 67.479 61.875 67.3918 61.9014C67.2766 61.8748 67.1566 61.8607 67.0334 61.8607H61.9583C61.7328 61.8607 61.5184 61.9078 61.3242 61.9926V60.4601C61.5184 60.5449 61.7328 60.592 61.9583 60.592H67.0334ZM68.6193 65.0328V63.764H79.4035V65.0328H68.6193ZM35.3141 60.592C35.5398 60.592 35.7544 60.5448 35.9488 60.4598V61.9928C35.7544 61.9079 35.5398 61.8607 35.3141 61.8607H30.239C30.0135 61.8607 29.7991 61.9078 29.6049 61.9926V60.4601C29.7991 60.5449 30.0135 60.592 30.239 60.592H35.3141ZM30.5562 38.3893V52.3457H31.825V50.7598C31.825 49.8839 32.535 49.1738 33.4109 49.1738H34.9969V41.5612H33.4109C32.535 41.5612 31.825 40.8511 31.825 39.9752V38.3893H30.5562ZM30.5562 57.42V58.6888H34.9969V57.42H30.5562ZM30.5562 63.7639V65.0326H34.9969V63.7639H30.5562ZM62.2755 58.6888V57.42H66.7162V58.6888H62.2755ZM62.2755 65.0326V63.7639H66.7162V65.0326H62.2755ZM58.1522 52.0279H39.1207C38.42 52.0279 37.8519 52.596 37.8519 53.2967V65.9844C37.8519 66.6851 38.42 67.2531 39.1207 67.2531H58.1522C58.853 67.2531 59.421 66.6851 59.421 65.9844V53.2967C59.421 52.596 58.853 52.0279 58.1522 52.0279ZM81.3066 54.2482V68.2047H88.9192V54.2482H81.3066Z" fill="#93B6EA"/>
<path fill-rule="evenodd" clip-rule="evenodd" d="M48.6362 24.7499C48.6362 26.5017 47.2162 27.9218 45.4643 27.9218C43.7124 27.9218 42.2924 26.5017 42.2924 24.7499C42.2924 22.9981 43.7124 21.5779 45.4643 21.5779C47.2162 21.5779 48.6362 22.9981 48.6362 24.7499ZM46.7331 24.7499C46.7331 25.4506 46.1651 26.0186 45.4643 26.0186C44.7635 26.0186 44.1955 25.4506 44.1955 24.7499C44.1955 24.0491 44.7635 23.4811 45.4643 23.4811C46.1651 23.4811 46.7331 24.0491 46.7331 24.7499Z" fill="#93B6EA"/>
<path fill-rule="evenodd" clip-rule="evenodd" d="M41.3402 31.0934C41.3402 30.6195 41.6866 30.2265 42.14 30.1539C40.3278 29.0371 39.1199 27.0343 39.1199 24.7493C39.1199 21.2457 41.9599 18.4055 45.4637 18.4055C48.9676 18.4055 51.8076 21.2457 51.8076 24.7493C51.8076 27.0343 50.5996 29.0371 48.7874 30.1539C49.2408 30.2266 49.5872 30.6195 49.5872 31.0934V34.9831C49.5872 35.5134 49.3222 36.0086 48.881 36.3027L46.3435 37.9944C45.8107 38.3496 45.1167 38.3496 44.584 37.9944L42.0464 36.3027C41.6052 36.0086 41.3402 35.5134 41.3402 34.9831V31.0934ZM45.4637 29.19C47.9165 29.19 49.9044 27.2019 49.9044 24.7493C49.9044 22.2967 47.9165 20.3086 45.4637 20.3086C43.011 20.3086 41.0231 22.2967 41.0231 24.7493C41.0231 27.2019 43.011 29.19 45.4637 29.19ZM47.6841 32.045H43.2434V33.3138H47.6841V32.045ZM43.8487 35.2169L45.4637 36.2936L47.0788 35.2169H43.8487Z" fill="#93B6EA"/>
<path fill-rule="evenodd" clip-rule="evenodd" d="M74.6455 39.6579C73.7696 39.6579 73.0595 40.368 73.0595 41.2439V49.4909C73.0595 50.3668 73.7696 51.0768 74.6455 51.0768H89.2363C90.1122 51.0768 90.8223 50.3668 90.8223 49.4909V47.9049H92.091V49.4909C92.091 50.3668 92.8011 51.0768 93.677 51.0768H95.5802C96.4561 51.0768 97.1661 50.3668 97.1661 49.4909V41.2439C97.1661 40.368 96.4561 39.6579 95.5802 39.6579H93.677C92.8011 39.6579 92.091 40.368 92.091 41.2439V42.8298H90.8223V41.2439C90.8223 40.368 90.1122 39.6579 89.2363 39.6579H74.6455ZM74.9627 49.1737V41.5611H88.9191V43.147C88.9191 44.0229 89.6292 44.733 90.5051 44.733H92.4082C93.2841 44.733 93.9942 44.0229 93.9942 43.147V41.5611H95.263V49.1737H93.9942V47.5877C93.9942 46.7118 93.2841 46.0018 92.4082 46.0018H90.5051C89.6292 46.0018 88.9191 46.7118 88.9191 47.5877V49.1737H74.9627Z" fill="#93B6EA"/>
<path fill-rule="evenodd" clip-rule="evenodd" d="M9.62119 76.1345C9.62119 75.2586 10.3312 74.5485 11.2071 74.5485H25.798C26.6739 74.5485 27.384 75.2586 27.384 76.1345V78.0377C27.384 78.9136 26.6739 79.6236 25.798 79.6236H11.2071C10.3312 79.6236 9.62119 78.9136 9.62119 78.0377V76.1345ZM11.5243 76.4517V77.7205H25.4808V76.4517H11.5243Z" fill="#93B6EA"/>
<path fill-rule="evenodd" clip-rule="evenodd" d="M9.62119 82.4783C9.62119 81.6024 10.3312 80.8924 11.2071 80.8924H25.798C26.6739 80.8924 27.384 81.6024 27.384 82.4783V84.3815C27.384 85.2574 26.6739 85.9675 25.798 85.9675H11.2071C10.3312 85.9675 9.62119 85.2574 9.62119 84.3815V82.4783ZM11.5243 82.7955V84.0643H25.4808V82.7955H11.5243Z" fill="#93B6EA"/>
<path fill-rule="evenodd" clip-rule="evenodd" d="M28.6527 69.7907C28.6527 68.9148 29.3628 68.2047 30.2387 68.2047H35.3138C36.1897 68.2047 36.8997 68.9148 36.8997 69.7907V71.3766H60.3719V69.7907C60.3719 68.9148 61.082 68.2047 61.9579 68.2047H76.5487C77.4246 68.2047 78.1347 68.9148 78.1347 69.7907V71.3766H89.2364C90.1123 71.3766 90.8224 72.0867 90.8224 72.9626V87.5534C90.8224 88.4293 90.1123 89.1394 89.2364 89.1394H77.5752C76.9745 89.1394 76.4253 88.8 76.1567 88.2627L70.2512 76.4517H36.5362L30.6308 88.2627C30.3621 88.8 29.8129 89.1394 29.2122 89.1394H4.8633C3.9874 89.1394 3.27734 88.4293 3.27734 87.5534V72.9626C3.27734 72.0867 3.9874 71.3766 4.8633 71.3766H28.6527V69.7907ZM30.5559 70.1079V71.6938C30.5559 72.5697 29.8458 73.2798 28.9699 73.2798H5.1805V87.2362H29.0162L34.9217 75.4252C35.1903 74.8879 35.7395 74.5485 36.3402 74.5485H70.4472C71.0479 74.5485 71.5971 74.8879 71.8657 75.4252L77.7712 87.2362H88.9192V73.2798H77.8175C76.9416 73.2798 76.2316 72.5697 76.2316 71.6938V70.1079H62.2751V71.6938C62.2751 72.5697 61.565 73.2798 60.6891 73.2798H36.5825C35.7066 73.2798 34.9966 72.5697 34.9966 71.6938V70.1079H30.5559Z" fill="#93B6EA"/>
<path fill-rule="evenodd" clip-rule="evenodd" d="M72.55 48.0279V44.3768C72.55 44.0116 72.3622 43.6465 71.9867 43.8291H70.109C69.9213 43.8291 69.9213 43.8291 69.7336 44.0115L67.8559 45.8372C67.6681 45.8372 67.6681 46.0198 67.6681 46.2023C67.6681 46.3848 67.6681 46.3849 67.8557 46.5673L69.7335 48.393C69.7335 48.5755 69.9212 48.5755 70.109 48.5755H71.9867C72.3622 48.5755 72.55 48.393 72.55 48.0279ZM71.4234 44.9244V47.4802H70.4846L69.1702 46.2023L70.4846 44.9244H71.4234Z" fill="#93B6EA"/>
</svg>
