<svg width="80" height="80" viewBox="0 0 80 80" fill="none" xmlns="http://www.w3.org/2000/svg">
<g clip-path="url(#clip0_1_2971)">
<rect x="-3.84082" y="17.3726" width="30" height="94" rx="12" transform="rotate(-45 -3.84082 17.3726)" fill="#EAF1FB"/>
<path d="M54.9824 51.4624L54.9808 51.4608C54.587 51.1827 54.387 50.7968 54.387 50.3139V9.52957C54.387 5.13739 50.812 1.56395 46.4167 1.56395C42.0245 1.56395 38.4511 5.13739 38.4511 9.52957V50.3124C38.4511 50.7968 38.2511 51.1827 37.8542 51.4608C33.9214 54.2452 31.573 58.7796 31.573 63.5905C31.573 71.7749 38.2324 78.4343 46.4167 78.4343C54.6042 78.4343 61.2652 71.7749 61.2652 63.5905C61.2636 58.7796 58.9167 54.2452 54.9824 51.4624ZM46.4152 76.5624C39.2636 76.5624 33.4449 70.7436 33.4449 63.5921C33.4449 59.3874 35.498 55.4249 38.9339 52.9936C39.8308 52.3624 40.3245 51.4108 40.3245 50.3139V9.52957C40.3245 6.1702 43.0574 3.43739 46.4167 3.43739C49.7792 3.43739 52.5136 6.1702 52.5136 9.52957V50.3124C52.5136 51.4093 53.0074 52.3608 53.9027 52.9921C57.3402 55.4249 59.3917 59.3874 59.3917 63.5921C59.3902 70.7436 53.5699 76.5624 46.4152 76.5624ZM51.5495 54.8202L50.3933 54.1421C49.9464 53.8796 49.6995 53.4499 49.6995 52.9296V16.1733C49.6995 14.3655 48.2261 12.8936 46.4152 12.8936C44.6074 12.8936 43.1355 14.3655 43.1355 16.1733V52.9311C43.1355 53.4483 42.8886 53.8796 42.4417 54.1421L41.2855 54.8202C38.1839 56.6436 36.2574 60.0046 36.2574 63.5921C36.2574 69.1936 40.8136 73.7499 46.4152 73.7499C52.0183 73.7499 56.5777 69.1936 56.5777 63.5921C56.5777 60.0046 54.6511 56.6436 51.5495 54.8202ZM46.4152 71.8764C41.8464 71.8764 38.1308 68.1593 38.1308 63.5921C38.1308 60.6655 39.7042 57.9249 42.2339 56.4374L43.3917 55.7577C44.4199 55.1514 45.0089 54.1218 45.0089 52.9311V16.1733C45.0089 15.4108 45.6527 14.7671 46.4152 14.7671C47.1792 14.7671 47.8261 15.4108 47.8261 16.1733V52.9311C47.8261 54.1249 48.4167 55.1546 49.4449 55.7593L50.5995 56.4358C53.1308 57.9233 54.7042 60.6655 54.7042 63.5921C54.7042 68.1593 50.987 71.8764 46.4152 71.8764ZM29.7058 11.903C29.462 11.1983 29.2167 10.4952 28.9792 9.7952C28.9132 9.60093 28.7853 9.43367 28.6151 9.31908C28.445 9.20449 28.2419 9.14889 28.037 9.16082C27.8323 9.17308 27.6372 9.25216 27.4817 9.38594C27.3262 9.51972 27.2188 9.70081 27.1761 9.90145C26.9058 11.1749 26.4199 12.4483 25.9042 13.7968C25.612 14.5624 25.3136 15.3436 25.0558 16.1327C24.262 14.7655 23.7136 12.9124 23.1417 10.9811C22.2136 7.8452 21.1605 4.29051 18.7417 1.84207C18.605 1.70335 18.4283 1.61084 18.2364 1.57751C18.0445 1.54417 17.8469 1.57166 17.6714 1.65614C17.4955 1.74014 17.3502 1.87699 17.2557 2.04759C17.1613 2.21818 17.1226 2.414 17.1449 2.6077C17.7011 7.48426 15.5152 11.4561 13.3995 15.2968C11.3027 19.1061 9.32142 22.703 9.90111 26.9999C10.8355 33.9155 17.0824 37.6405 22.4933 37.6405H22.5089C25.0808 37.6374 27.398 36.8561 29.2136 35.3796C31.2292 33.7421 32.5011 31.3108 32.8933 28.3468C33.587 23.0921 31.6136 17.403 29.7058 11.903ZM22.5058 35.7671H22.4917C20.7683 35.7671 18.9449 35.3265 17.2949 34.4686C17.148 33.3202 17.2808 32.1296 17.687 31.0124C18.473 28.8561 19.948 26.2452 21.1324 24.1483C21.2542 23.9327 21.373 23.7233 21.4855 23.5233C21.6152 23.7514 21.7511 23.9905 21.8917 24.2389C23.0949 26.353 24.5917 28.9843 25.3855 31.1139C25.8761 32.4171 25.9714 33.8093 25.6636 35.1389C25.6558 35.1702 25.6511 35.2015 25.6464 35.2327C24.6199 35.5999 23.5417 35.7655 22.5058 35.7671ZM31.0355 28.1014C30.6495 31.0155 29.3558 32.9608 27.6964 34.1624C27.7777 32.9139 27.5933 31.653 27.1417 30.4561C26.2964 28.1874 24.7574 25.4827 23.5214 23.3108C23.0339 22.453 22.612 21.7124 22.3167 21.1436C22.2379 20.9913 22.1186 20.8637 21.9719 20.7746C21.8253 20.6856 21.657 20.6387 21.4855 20.6389C21.3138 20.639 21.1455 20.6862 20.9989 20.7755C20.8523 20.8648 20.733 20.9927 20.6542 21.1452C20.3667 21.7014 19.9667 22.4077 19.5042 23.2264C18.2855 25.3843 16.7683 28.0686 15.9292 30.3718C15.5985 31.2807 15.4098 32.2351 15.3699 33.2014C13.5214 31.6874 12.1324 29.5202 11.7574 26.7499C11.2605 23.0671 13.0964 19.7311 15.0402 16.2014C16.7839 13.0343 18.7167 9.52489 19.0542 5.39832C20.0777 7.2327 20.7199 9.39832 21.3464 11.5155C22.2152 14.4483 23.0355 17.2171 24.837 18.8608C24.9589 18.9718 25.1078 19.0487 25.2688 19.0838C25.4298 19.1189 25.5973 19.111 25.7542 19.0608C25.9112 19.0103 26.0521 18.9193 26.1627 18.7969C26.2732 18.6746 26.3495 18.5252 26.3839 18.3639C26.6542 17.0905 27.1402 15.8171 27.6558 14.4686C27.823 14.0311 27.9917 13.5905 28.1542 13.1452C29.9183 18.2405 31.6464 23.4749 31.0355 28.1014ZM60.037 12.4311C60.037 11.9139 60.4558 11.4936 60.9745 11.4936H66.0777C66.5949 11.4936 67.0152 11.9124 67.0152 12.4311C67.0152 12.9499 66.5964 13.3686 66.0777 13.3686H60.9745C60.4574 13.3671 60.037 12.9483 60.037 12.4311ZM60.037 17.3952C60.037 16.878 60.4558 16.4577 60.9745 16.4577H69.2652C69.7824 16.4577 70.2027 16.8764 70.2027 17.3952C70.2027 17.9139 69.7839 18.3327 69.2652 18.3327H60.9745C60.4574 18.3327 60.037 17.9139 60.037 17.3952ZM60.037 22.3608C60.037 21.8436 60.4558 21.4233 60.9745 21.4233H66.0777C66.5949 21.4233 67.0152 21.8421 67.0152 22.3608C67.0152 22.8796 66.5964 23.2983 66.0777 23.2983H60.9745C60.4574 23.2983 60.037 22.878 60.037 22.3608ZM70.2027 27.3218C70.2027 27.8389 69.7839 28.2593 69.2652 28.2593H60.9745C60.4574 28.2593 60.037 27.8405 60.037 27.3218C60.037 26.803 60.4558 26.3843 60.9745 26.3843H69.2652C69.7824 26.3843 70.2027 26.8046 70.2027 27.3218ZM60.037 32.2858C60.037 31.7686 60.4558 31.3483 60.9745 31.3483H66.0777C66.5949 31.3483 67.0152 31.7671 67.0152 32.2858C67.0152 32.8046 66.5964 33.2233 66.0777 33.2233H60.9745C60.4574 33.2233 60.037 32.8046 60.037 32.2858ZM70.2027 37.2514C70.2027 37.7686 69.7839 38.1889 69.2652 38.1889H60.9745C60.4574 38.1889 60.037 37.7702 60.037 37.2514C60.037 36.7327 60.4558 36.3139 60.9745 36.3139H69.2652C69.7824 36.3155 70.2027 36.7343 70.2027 37.2514ZM60.037 42.2171C60.037 41.6999 60.4558 41.2796 60.9745 41.2796H66.0777C66.5949 41.2796 67.0152 41.6983 67.0152 42.2171C67.0152 42.7358 66.5964 43.1546 66.0777 43.1546H60.9745C60.4574 43.153 60.037 42.7343 60.037 42.2171ZM70.2027 47.1811C70.2027 47.6983 69.7839 48.1186 69.2652 48.1186H60.9745C60.4574 48.1186 60.037 47.6999 60.037 47.1811C60.037 46.6624 60.4558 46.2436 60.9745 46.2436H69.2652C69.7824 46.2452 70.2027 46.6639 70.2027 47.1811Z" fill="#276CD3"/>
</g>
<defs>
<clipPath id="clip0_1_2971">
<rect width="80" height="80" fill="white"/>
</clipPath>
</defs>
</svg>
